/* XPM */
static char *_6df6d3d1e2d430dd1f98416bda0d124c6Mc08sJgrCwtnre[] = {
/* columns rows colors chars-per-pixel */
"64 64 111 2 ",
"   c black",
".  c white",
"X  c white",
"o  c white",
"O  c white",
"+  c white",
"@  c white",
"#  c white",
"$  c white",
"%  c white",
"&  c #F4F2F3",
"*  c #EAE7E9",
"=  c gray94",
"-  c gray89",
";  c None",
":  c #6B5464",
">  c white",
",  c white",
"<  c #343434",
"1  c gray20",
"2  c white",
"3  c white",
"4  c #EFEFEF",
"5  c #EAE7E9",
"6  c white",
"7  c #ECE9EB",
"8  c white",
"9  c white",
"0  c #E2E2E2",
"q  c #E4E4E4",
"w  c #353535",
"e  c gray90",
"r  c white",
"t  c #EAE7E9",
"y  c #E2E2E2",
"u  c #583E50",
"i  c #5B4152",
"p  c #5B4153",
"a  c #5A4152",
"s  c #5A4052",
"d  c #593F51",
"f  c #1B1B1B",
"g  c #1D1D1D",
"h  c gray10",
"j  c #543A4C",
"k  c #3F2537",
"l  c #3B2233",
"z  c #3C2234",
"x  c #3D2234",
"c  c #43263A",
"v  c #44263B",
"b  c #44263A",
"n  c #422539",
"m  c black",
"M  c #010101",
"N  c #161616",
"B  c #D0CDCF",
"V  c #221E21",
"C  c #060305",
"Z  c #080507",
"A  c #070406",
"S  c #0F090D",
"D  c #3E2436",
"F  c #45283C",
"G  c #C8C8C8",
"H  c #E3E4E3",
"J  c #3D2335",
"K  c #46283C",
"L  c #EAE6E9",
"P  c white",
"I  c #583D4F",
"U  c #E4E4E4",
"Y  c #46293D",
"T  c #EBE8EA",
"R  c #ECE8EB",
"E  c gray1",
"W  c #361F2F",
"Q  c #44273B",
"!  c #D7D1D5",
"~  c #EEEBED",
"^  c #FFFEFE",
"/  c gray89",
"(  c #553C4D",
")  c #FDFDFD",
"_  c gray90",
"`  c #181818",
"'  c #3F2436",
"]  c #472B3F",
"[  c #563C4E",
"{  c #6D5766",
"}  c #F0EDEF",
"|  c #EDEAEC",
" . c gray91",
".. c #363737",
"X. c #191919",
"o. c #060406",
"O. c #D9D2D7",
"+. c #D0CED0",
"@. c #1B1A1B",
"#. c #D9D3D7",
"$. c #D1CED0",
"%. c #201D1F",
"&. c #040103",
"*. c #050204",
"=. c #010001",
"-. c #503949",
";. c #0A0709",
":. c #482B3F",
">. c #573D4F",
",. c #402738",
"<. c #080407",
/* pixels */
"                                                                                                                                ",
"                                                                                                                                ",
"                                                                                                                                ",
"                                                                                                                                ",
"                                                                                                                                ",
"                                                                                                                                ",
"                                                                                                                                ",
"                                                                                                                                ",
"                                                                                                                                ",
"                                                                                                                                ",
"                                                                                                                                ",
"                                                                                                                                ",
"                                                                                                                                ",
"                                                                                                                                ",
"                                                                                                                                ",
"                                                                                                                                ",
"                                                                                                                                ",
"                                                                                                                                ",
". . . . . . . . . . . . . . . . . . . . . . . .                                     . . . . . . . . . . . . . . . . . . . . . . ",
". X o O O O O O O O O O O O O O O O O O O o X .                                     . X o O O O O O O O O O O O O O O O O o X . ",
". + @ # $ $ $ $ $ $ $ $ $ $ $ $ $ $ $ $ # @ + . . . . . . . . .     . . . . . . . . . + @ # $ $ $ $ $ $ $ $ $ $ $ $ $ $ # @ + . ",
"% & * t t t t t t t t t t t t t t t t t t * & + X X o O O o X .     . X o o X . . X + = - y y y y y y y y y y y y y y y y - = % ",
"# * ; u i p p p p p a s a a a a a a a a d : * @ > > @ # # @ + . . . . + , , + . . o @ - < f g g g g g g g g g g g g g g h 1 - # ",
"# * ; j k l z z z x c v b b b b b b b b n d t 2 3 4 - y y - = + X X + & 5 5 & + 6 O # y f m m m m m m m m m m m m m m M N 1 - # ",
"% & 7 B V C Z Z A S D F F F F F F F F F b a t 8 9 0 < f f < - @ > > @ * ; ; * @ > o $ y g m m m m m m m m m m m m m m h G q = % ",
". % $ H g m m m m A J K F F F F F F F F b a L P P y f m m f y 2 3 3 2 t I I t 2 3 3 9 y g m m m m m m m m m m m m m m g U $ % . ",
". O # y f m m m m Z D Y K F F F F F F F b a T P P y g m m g U 8 9 9 8 R d d t 8 9 9 8 U g m m m m m m m m m m m m m m f y # O . ",
". o @ - < f g h E A W D J D Q F F F F F Q u ! ~ ^ y g m m h G U y y / B ( d t ) _ y U G h m m m m m m m m m m E h g f < - @ o . ",
". X + = - y U G ` m A Z A S ' Y F F F F F ] [ { } _ g m m E h g g g g V k p |  ...f g X.E m m m m m m m m m m ` G U y - = + X . ",
". . . + @ # $ q w ` E m m o.W ' Q F F F F F n [ O.+.@.m m m m m m m m C z u #.$.%.&.C *.=.m m m m m m m m E ` w q $ # @ + . . . ",
"    . X o O % = q G h m m M o.S D F F F F F F ] u -.;.m m m m m m m m Z J :.u >.,.J D W A m m m m m m m m h G q = % O o X .     ",
"    . . . . . % $ U g m m m m A J K F F F F F F Q z <.m m m m m m m m Z J F v Q F K Y D Z m m m m m m m m g U $ % . . . . .     ",
"            . O # y f m m m m Z D Y K K K K K K Y D Z m m m m m m m m Z D Y K K K K Y D Z m m m m m m m m f y # O .             ",
"            . o @ - < f g h E A W D J J J J J J D W A m m m m m m m m A W D J J J J D W A m m m m m m E ` < - @ o .             ",
"            . X + = - y U G ` m A Z Z Z Z Z Z Z Z A M m m m m m m m m M A Z Z Z Z Z Z A M m m m m m m ` G e = + X .             ",
"            . . . + @ # $ q w ` E m m m m m m m m m m m m m m m m m m m m m m m m m m m m m m E h g f < e @ + . . .             ",
"                . X o O % = q G h m m m m m m m m m m m m m m m m m m m m m m m m m m m m m m h G U y - = + X .                 ",
"                . . . . . % $ U g m m m m m m m m m m m m m m m m m m m m m m m m m m m m m m g U 8 2 @ + . . .                 ",
"                        . O $ y g m m m m m m m m m m m m m m m m m m m m m m m m m m m m m m g y 9 r + X .                     ",
"                        . O $ y g m m m m m m m m m m m m m m m m m m m m m m m m m m m m m m g y $ % . . .                     ",
"                        . O # y f m m m m m m m m m m m m m m m m m m m m m m m m m m m m m m f y # O .                         ",
"                        . o @ - < f g g g g g h E m m m m m m m m m m m m m m E h g g g g g f < - @ o .                         ",
"                        . X + = - y y y y y U G h m m m m m m m m m m m m m m h G U y y y y y - = + X .                         ",
"                        . . . + @ # $ $ $ 9 8 U g m m m m m m m m m m m m m m g U 8 9 $ $ $ # @ + . . .                         ",
"                            . X o O O O % r 2 y f m m m m m m m m m m m m m m f y 2 r % O O O o X .                             ",
"                            . . . . . . . + @ - < f g g g h E m m m m E h g f < - @ + . . . . . . .                             ",
"                                        . X + = - y y y U G ` m m m m ` G U y - = + X .                                         ",
"                                        . . . + @ # $ $ $ q < f g g f < q $ # @ + . . .                                         ",
"                                            . X o O O O % = - y y y y - = % O o X .                                             ",
"                                            . . . . . . . + @ # $ $ # @ + . . . . .                                             ",
"                                                        . X o O O O O o X .                                                     ",
"                                                        . . . . . . . . . .                                                     ",
"                                                                                                                                ",
"                                                                                                                                ",
"                                                                                                                                ",
"                                                                                                                                ",
"                                                                                                                                ",
"                                                                                                                                ",
"                                                                                                                                ",
"                                                                                                                                ",
"                                                                                                                                ",
"                                                                                                                                ",
"                                                                                                                                ",
"                                                                                                                                "
};
