/* XPM */
static char *_f5eecf7a1f64783b945cccdc02a65a2wX5bwMEmn5B0gvy6[] = {
/* columns rows colors chars-per-pixel */
"64 64 48 1 ",
"  c black",
". c #060305",
"X c #070406",
"o c #080507",
"O c #0B090C",
"+ c #0C090D",
"@ c #0F0B10",
"# c #0F0C11",
"$ c #100B11",
"% c #100C12",
"& c #130C15",
"* c #140F17",
"= c #150E19",
"- c #131016",
"; c #141017",
": c #161018",
"> c #1B1B1B",
", c #181121",
"< c #1A1224",
"1 c #1C1326",
"2 c #1D1427",
"3 c #1C1328",
"4 c #1E1429",
"5 c #20142A",
"6 c #25152A",
"7 c #27172D",
"8 c #28172E",
"9 c #29182F",
"0 c #271E30",
"q c #2B1930",
"w c #2C1931",
"e c #281F31",
"r c #2D1B34",
"t c #2F1C35",
"y c #301C35",
"u c #2B2034",
"i c #2D2236",
"p c #2E2238",
"a c #2F243A",
"s c #31253B",
"d c #32253C",
"f c #34263C",
"g c #44263A",
"h c #45283C",
"j c #412A42",
"k c #462D45",
"l c #40364A",
"z c white",
/* pixels */
"kkaaaa%+%%++++%%%%%%+@<114qrkkkkkksaaskkkkkkkkdu;%%%+@<4qwaawwww",
"kkaaaa%+%%++++#%%%%#+@,<<18wkkkkkkfsaskkkkkkkksu;%%%@$25qwaarwww",
"kkaaaa%+%%++++++++++++@@@$15wrrrrykksasssfkkfssi;%%&,2aawrkkaaww",
"kkaaaa%+#%$$%%%%%%%%++++++,18qqqqrkksaaaaskksaie&%%&<4aartkkaaww",
"ttaa*#+++@69aaaakkkk%O+++++$1445qwrtpaaaaasssi*%%%%&<4aaapttaaww",
"ttaa%O++@&8wpaaakkkk*@%%%%++,<<19qqqppppaaaai0#+#%%&<4aaaarraarw",
"aaaa%++@68wwpaaaaaakw9aaaa#+@@@$1445qwwrpasi*#++++%&<4qraaaaaaaa",
"aaaa%+@&8wwrpaaaaaajytaaaa*#++++,<<17889uuu0#+++++#&,1qwaaaaaaaa",
"aaaa%@69wwppkkaaaaaakkkkkkaa#+++@@@@@$$$%%%#++++++++%=9wwraaaaaa",
"aaaa#@7qwwppppaaaaaakkkkkkaa*#++++++++++#%%%%%%%%%++#&7qwwaaaaaa",
"kk:@+@15qwwwwwwwwraaaatykkkkaa%+++#%###&aaaaaaaaaa#++@15qwaaaarw",
"kk%O+@<4qwwwwwwwwwaaaawtkkkkaa%+++%%&&&:aaaaaaaaaa*#+@,19qaaaaww",
"yq$++@<4qwwwppppwwwrpapskkkkaa%+#%%&698qaakkkkaaaaaa#+%&15qwwwww",
"86@++@,19qwwpaaprwwrpaaskkkkaa%+#%%&9wwraakkkkaaaaaa*%#%,18qqqqq",
"$@+++++$15qwpaaappppaaaaaakkaa%+++#&9waaaaaakkkkkkaaaa%++$144444",
"+++++++@<4qqppppaaaaaaaaaakjaa%+++&:9waaaaaakkkkkkaaaa*#++,<<<<<",
"+++++++@<345qwwrpaaaaaaaaaaaaa%++@69wwaaaaaatrrykkkkaaaa#+&&&&&&",
"%%%%+++@,<<178qqpppppppppaaaaa%++$8wwwaaaaaawwwrkkkkaaaa%+#%#%&-",
"aaaa#+++@@@@@&15qwwwwwwwwq=&&&+++$8wwwaaaaaawwwwrykkaasa%+%%+%aa",
"daaa*#+++++++@,17888888896&@@@+++%7qwwaaaaaarwwwwtkkaaaa%+#%@&aa",
"kkaaaa%+++#%%#@@@$@@@@@$&&%%%%###&15qwwraaaaaaaappsaaa*%%#+@ttaa",
"kkassa%+++%%%%++++@@@@@$&-;;;;;&%&,19qwwaaaaaaaaaaaaaa%+#%@&ttpa",
"rykkaa%+#%%%%%%%#&688889aaaaaaaa&#@$15qwwraaaaaaaaaaaa%++$ttaaaa",
"wrkkaa*%%%%%%%%%&:9wwwwtsaaaaaaa:&+@,178wwaaaaaaaaaaaa%++&ttaaaa",
"wwrtaazzzzzzzzzzzzzzzzzzzkkkkkaaaa&#@@@&8zzzzzzzzzzzzzzzzzttaaaa",
"wwwrpazhhhhhhhhhhhhhhhhhzkzzzzzaaazzzz+@6z               zttaaaa",
"aaaaaazz .ooXhhhhhhhhhhhzkz   zklazhhz%%$z              zz45ttaa",
"aaaaaa&z     hhhhhhhhhhhzkz   zkaazhhz%%+z              z<14ttaa",
"wq52:&%z     hhhhhhhhhghzzz   zzzzzhhzzzzz             >z@<345tt",
"871,&%%zzzzz XoX+hhhhhhhhzz        hhzz             zzzzz@,<<1tt",
"$$&&%%%%+@,z     hhhhhhhhzz        hhzz ..          z+#%%#@@@@@$",
"++#%%%%%+@<zz     Xhhhhhhhh        hhgghhho        zz%&&%#++++++",
"##%%%%%%+@<4z     ohhhhhhhh        hhhhhhho        zaaaa%+#%%%%%",
";;;&%%%%+@15z     Xhhhhhhhh        hhhhhhhX        zaaaa*%%%%%%%",
"aaaa%+%%+@7qzzzzz                                zzzkkaaaa&%%%++",
"aaaa*%%#+$8wwwwwzzz                           zzzzkkkkaaaa;%%%$$",
"aakkaa%++$8wwwwwaaz                           ztaaaaaaaaaa;#+@tt",
"aakkai%++$8wwwwwppz                           ztaaaaapaaaa&#@&tt",
"aatykk%++$8wwwwwwwz                          >z445tttttt&#+$ttap",
"apwtkk&++$8wwwqqwwzzzzzzz              zzzzzzzz<<1tttttt@++@ttaa",
"aaaatw&#+$8wwq44qwwwwwwwz              z%%%#++@@@@@$$$$@+++@15tt",
"aaaa96&#+$688734qqwwwwwwz              z%%%%+++++++++++++++@,1tt",
"www9&@%%%%$$$&<345qwwwwwzzzzzz     zzzzz&%%%%%##+++++++++++++$14",
"8886@+#%%#++++,<<17888qqqqwwwz    >z$+%%%%%%%%&&%%aaaaa%++++++,<",
"$$$@++++++##++@@@@@$$&1455qwwzzzzzzz%%%%%%%%%&aaaaaaaaaa&#%#++@@",
"++++++%%%%&&%#++++++++,<<17886@+++++#%%%%%&&&:aaaasssaaa:&%%++++",
"@@+++#aaaaaaaa#O++++++@@@@@$$@++++++++%%+$ttaaaaaakksaaaaa&%%%%%",
"@@++@&aaaaaaaa*%%%++++++++++++%%%%%%++%%+@ttaaaaaakkfsaaaa:&%%%%",
"@@+@ttaskkkkaaaaaa#+++++++##+#aaaakk%+%%+@15aaaaaattkksaaaaa&%%%",
"@@@&ttaakkkkkaaasa*#++++++%%@&aaaakk%+%%+@<4aaaaaawtkkspaaaa:&%%",
"+@ttapaattkkkkaaaaaa%+++#%%&,1ttaaaa%+%%+@<4ttaaaaaattttaaaaaa&%",
"+$ttaaaattkkkkaaaaaa%+++%%%&,1ttaaaa%+##+@,1ttaaaaapttttaaaaaa;%",
"+$ttaaaaaattttkkaasa%+#%%%%%@$15tt:&%#+++++$15ttttpappppaaaaaa;%",
"+$ttaaaaaattttkkaaaa%+%%%%%%++,1tt&#%#++++++,1ttttppppppaappaa&%",
"+$ttttaaapttttrtaa*#++%%%%%%+++@@@++++++++++@@@&tttttttraptww9&%",
"+@ttttaaapttttttpa%O++%%%%%%$$%%%%%%%%%%%%+++++@ttttttttppq996&%",
"++@&15aaaapppappaa%+++%%+++@ttaaaaaaaaaaaa#O+++@15tttttttq:&&&%%",
"+++@,2aaappppaaaaa%+++#%$$@&ttpaaaaaaaaaaa*%%%+@,1ttttttt6&%%%%%",
"##%#@$25ttttttaa:&%%%#+@ttttapaaaaaaaakkaaaaaa#+&&&&&&&&&&%%%%%%",
";&%%+@,1ttttttaa&%%%%%@&ttttaaaaaaaaaakkaaaaaa*%%#%%%%%%#%&;;;;;",
"aa&%%#@@@$$$$$&&%%%%+$ttttttaaaaaakkkkkkkkaaaaaa%+%%%%%%+%aaaaaa",
"aa:&%#++++++++#%%%%%+@ttttttaaaaaakkkkkkkkaaaaaa%+%%%%%%@&aaaaaa",
"aaaa%+##++#%%%%%%%%%+@15ttttttaaaaaakkkkkkkkaaaa%+%%%%+$ttaaatkk",
"aasa%+%%++%%%%%%%%%%+@<4ttttttaaaaaskkkkkkkkaaaa%+%%%%+$ttaattkk"
};
