/* XPM */
static char *_5e008cae12644f0866a7824e0b6b839VZLkLtOEHdNBa7MT[] = {
/* columns rows colors chars-per-pixel */
"64 64 70 1 ",
"  c black",
". c #080403",
"X c #080504",
"o c #0B090C",
"O c #0C090D",
"+ c #100908",
"@ c #131204",
"# c #141304",
"$ c #0F0B10",
"% c #0F0C11",
"& c #100B11",
"* c #100C12",
"= c #130C15",
"- c #140F17",
"; c #140F18",
": c #141017",
"> c gray8",
", c #1A1716",
"< c #161018",
"1 c #272508",
"2 c #181121",
"3 c #1A1224",
"4 c #1C1326",
"5 c #1D1427",
"6 c #1C1328",
"7 c #1E1429",
"8 c #20142A",
"9 c #25152A",
"0 c #27172D",
"q c #29172F",
"w c #29182F",
"e c #271E30",
"r c #2B1930",
"t c #2C1931",
"y c #281F31",
"u c #2D1B34",
"i c #2F1C35",
"p c #311D36",
"a c #252525",
"s c #2B2135",
"d c #2D2236",
"f c #2E2238",
"g c #2F243A",
"h c #30253B",
"j c #34263C",
"k c #58322B",
"l c #5E342D",
"z c #61372E",
"x c #663931",
"c c #6A3B32",
"v c #6C3D33",
"b c #724731",
"n c #724831",
"m c #744932",
"M c #7D5632",
"N c #462D45",
"B c #895239",
"V c #8A5339",
"C c #8C543A",
"Z c #8F563B",
"A c #D4CD2E",
"S c #E4D635",
"D c #E7DF32",
"F c #E8E032",
"G c #EFE336",
"H c #EFE436",
"J c #F0E436",
"K c #FBF236",
"L c #FCF336",
"P c white",
/* pixels */
"OOOOOOOOOOOOOOOOOOOOOOOOOOOOOOOOOOOOOOOOOOOOOOOOOOOOOOOOOOOOOOOO",
"OOOggg*O**OOOO7****%O$233422222222222222222NNNhs:***$&58rtgguOOO",
"OOOggg*O**OOOOOOOOOOOO$$$&42222222222222222Njhhd:**=25ggtuNNggtO",
"OOgggg*O%*&&********OOOPPPPPPPPPPPPPPPPPPPPPhgdy=**=37gguiNNggtO",
"Oigg-%OOO$9wggggNNNN*oP                    >Pd-****=37gggfiiggtO",
"Oigg*oOO$=qtfgggNNNN-$P                    >Pe%O%**=37gggguugguO",
"Oggg*OO$9qttfgggPPPPPPP.XXXXXXXXXXXXXXXXXX.,-PPPPPP=37rugggggggO",
"Oggg*O$=qttufggP>>>>>>,llllllllllllllllllllk>>>>>>aP24rtgggggggO",
"Oggg*$9wttffNNgP      .xxxxxxxxxxxxxxxxxxxxl      >P*;wttugggggO",
"Oggg%$0rttfffPPP      Xxxxxxxxxxxxxxxxxxxxxl      >PPP0rttgggggO",
"ON<$O$48rtttP>>,llllllzCCCCCCCCCCCCCCCCCCCCBllllllk>>aP8rtgggguO",
"ON*oO$37rttP>  .xxxxxxcCCCCCCCCCCCCZCCCCCCCCxxxxxxl  >P4wrggggtO",
"Or&OO$37rttP>  XxxxxxxcCCCCZCCCCCCCCCZCCCCCCxxxxxxl  >P=48rttttO",
"O9$OO$24wrtP>  XxxxcccvCCCCZCCCCCCCCCZCCCCCCcccxxxl  >P*24qrrrrO",
"O$OOOOO&48rP>  XxxcBCCCZCCCCCCCCZCCCCCCCCCCCCCBcxxl  >POO&47777O",
"OOOOOOO$37rP>  XxxcCCCCZZCCCCCCCZZCCCCCCCCCCCCCcxxl  >P%OO23333O",
"OOOOOOO$367P>  XxxcCCCCCCCCCCCCCCCCCCCCCCCCCCCCcxxl  >Pg%O=====O",
"O***OOO$2PPP,.X+xxcCCCCCCCCCCCCCCCCCCCCCCCCCCZCvcczX.,PPPO%*%*=O",
"Oggg%OOOP>>,klllxxcCCCCCCCvccccccccccccvCCCCZZCCCCBllk,>>P**O*gO",
"Oggg-%OOP  .lxxxxxcCCCCCCCcxxxxxxxxxxxxcCCCCCCCCCCCxxl.  P%*$=gO",
"ONgggg*OP  XlxxxxxcCCCCCCCcxxxxxxxxxxxxcCCCCCCCCCCCxxlX  PO$iigO",
"ONghhg*OP  XlxxxccvBCCCCCBmnnnnnnnnnnnnmBCCCCCCCCCCxxlX  P$=iifO",
"OpNNgg*OP  XlxxcCCBvcccccmSHGGGGGGGGGGHSmccvCCCCCCCxxlX  PiigggO",
"OuNNgg-*P  XlxxcCCCcxxxxxnHLKKKKKKKKKKLHnxxcCCCCCCCxxlX  PiigggO",
"OtuiggggP  XlxxcCCCcxxxxxbGKKKLLLLLLLKKGbxxcCCCCCCCxxlX  PiigggO",
"OttufgggP  XlxxcCCCcxxxnbMJKKKDDDDDDFKKJMbnmCCCCCCBxxlX  PiigggO",
"Oggggg<=P  XlxxcCCCcxxbHGJKKLF######1LKKJGHScccccccxxlX  P78iigO",
"Oggggg=*P  XlxxcCCCcxxnLKKKKLD      #LKKKKLHxxxxxxxxxlX  P47iigO",
"Or85<=**P  XlxxcCCCcxxnKKKLLLD      #LLLKKKGxxxxxxxxxlX  P3678iO",
"O052=***P  XlxxcCCCcxxnKKKFDDA      @DDFKKKGxxxxxxxxxlX  P2334iO",
"O&==****P  XlxxcCCCcxxnKLD#            #DLKGxxxxxxxxxlX  P$$$$$O",
"OO%*****P  XlxxcCCCcxxnKLD#            #DLKGxxxxxxxxxlX  POOOOOO",
"O%******P  XlxxcCCCcxxnKLD#            #DLKGxxxxxxxxxlX  P%****O",
"OO:=****P  XlxxcCCCcxxnKLD#            #DLKGxxxxxxxxxlX  P*****O",
"OOgg*O**P  XlxxcCCCcxxnKLD#            #DLKGxxxxxxxxxlX  P=***OO",
"OOgg-**%P  XlxxcCCCcxxnKLD#            #DLKGxxxxxxxxxlX  P:***&O",
"OONNgg*OP  XlxxcCCCcxxnKLF1##@       ##1FLKGxxxxxxxxxlX  P:%O$iO",
"OONNgd*OP  XlxxcCCCcxxnKKKFDDA      @DDFKKKGxxxxxxxxxlX  P=%$=iO",
"OOipNN*OP  XlxxcCCCcxxnKKKLLLD      #LLLKKKGxxxxxxxxxlX  PO&iigO",
"OOtiNN=OP  XlxxcCCCcxxnKKKLLLD      #LLLKKKGxxxxxxxxxlX  PO$iigO",
"OOggit=%P  XlxxcCCCcxxnKKKFDDA      @DDFKKKGxxxxxxxxxlX  PO$48iO",
"OOggw9=%P  XlxxcCCCcxxnKLF1##@       ##1FLKGxxxxxxxxxlX  PO$24iO",
"Ottw=$**P  XlxxcCCCcxxnKLD#            #DLKGxxxxxxxxxlX  POOO&4O",
"Oqq9$O%*P  XlxxcCCCcxxnKLD#            #DLKGxxxxxxxxxlX  POOOO2O",
"O&&$OOOOP  XlxxcCCCcxxnKLF1############1FLKGxxxxxxxxxlX  P*%OO$O",
"OOOOOO**P  XlxxcCCCcxxnKKKFDDDDDDDDDDDDFKKKGxxxxxxxxxlX  P**OOOO",
"O$OOO%ggP  XlxxcCCCcxxnKKKLLLLLLLLLLLLLLKKKGxxxxxxxxxlX  P=****O",
"O$OO$=ggP  XlxxcCCCcxxnLKKKKKKKKKKKKKKKKKKLHxxxxxxxxxlX  P<=***O",
"O$O$iighP  XlxxcCCCcxxbHGGGGGGGGGGGGGGGGGGHSxxxxxxxxxlX  Pgg=**O",
"O$$=iiggP  XlxxcCCCcxxxnnnnnnnnnnnnnnnnnnnnbxxxxxxxxxlX  Pgg<=*O",
"O$iigfggP  XlxxcCCCcxxxxxxxxxxxxxxxxxxxxxxxxxxxxxxxxxlX  Pgggg=O",
"O&iiggggP  XlxxcCCCvcccccccccccccccccccccccccccccccxxlX  Pgggg:O",
"O&iiggggP  XlxxcCCCCCCCCCCCCCCCCCCCCCC4444444CCCCCBxxlX  Pgggg:O",
"O&iiggggP  XlxxcCCCCCCCCCCCCCCCCCCCC444N4NNN44CCCCCxxlX  Pfffg=O",
"O&iiiiggP  XlxxcCCCCCCCCCCCCCCCCC444iiiiiiiNNN4CCCCxxlX  Puttw=O",
"O$iiiiggP  X4444CCCCCCCCCCCCCCCC4444giiiigiiNN44CCBxxlX  Prqw9=*",
"OO$=4*i444444iii4ccccccccccccccc4iiiiiiiiiigNNN44444x**  P<===**",
"OOO$2igi44NiNiiNN4xxcc4444444cc44ipiggggggggNNN444i44*** P=*****",
"O%***igigggNNNiii4c444NNNNNi4444iigggggggggggNNiiiiggg***P******",
"O=**O77gggggiiiiii44NNNNNNNgggiiigggggggggggggggggpggggggg=:::::",
"Og=*7gggNNggggggiNNNiiiiiNgggiiihhggggggggggggggggggggggggggggOO",
"Og<ggggggggggggiiiiNiiiigiiiiiiiggggggggggggggggggggggggggggggOO",
"OOOOOgggOOOOOOggggggiigggOggggggggggggOOgggggggggggOOOgggggggOOO",
"OOOOOOOOOOOOOOOOOOOOOOOOOOOOOOOOOOOOOOOOOOOOOOOOOOOOOOOOOOOOOOOO"
};
