/* XPM */
static char *bef2a368561041a0e7eca3d98a39ad00fKUE4lT5KKesl1L6[] = {
/* columns rows colors chars-per-pixel */
"64 64 62 1 ",
"  c black",
". c white",
"X c white",
"o c white",
"O c white",
"+ c white",
"@ c white",
"# c white",
"$ c #F4F4F4",
"% c gray92",
"& c white",
"* c None",
"= c white",
"- c gray92",
"; c gray8",
": c black",
"> c #D8D8D8",
", c #1A1716",
"< c #080403",
"1 c #080504",
"2 c #58322B",
"3 c #5E342D",
"4 c #663931",
"5 c #080404",
"6 c #100908",
"7 c #61372E",
"8 c #6A3B32",
"9 c #693B32",
"0 c #885139",
"q c #8C543A",
"w c #8F563B",
"e c #6C3D33",
"r c #895239",
"t c #5E352D",
"y c #653931",
"u c #663831",
"i c #6C3D32",
"p c #89523A",
"a c #8A5339",
"s c #744932",
"d c #724831",
"f c #E4D635",
"g c #EFE436",
"h c #EFE336",
"j c #FCF336",
"k c #FBF236",
"l c #653831",
"z c #724731",
"x c #673A31",
"c c #714731",
"v c #7D5632",
"b c #F0E436",
"n c #F9F036",
"m c #E8E032",
"M c #E7DF32",
"N c #E4D535",
"B c #FAF136",
"V c #272508",
"C c #141304",
"Z c #D4CD2E",
"A c #131204",
"S c #020200",
/* pixels */
"                  .Xo======================oX.                  ",
"                  .Xo======================oX.                  ",
"          .........XO======================OX.........          ",
"          .+@#XXXXX$%----------------------%$XXXXX#@+.          ",
"          .@&oooooO%*;;;;;;;;;;;;;;;;;;;;;;*%Oooooo&@.          ",
"          .#o======-;::::::::::::::::::::::;-======o#.          ",
"      .....XO======-;::::::::::::::::::::::;-======OX.....      ",
"      .+@#X$%------>,<11111111111111111111<,>------%$X#@+.      ",
"      .@&oO%*;;;;;;,233333333333333333333332,;;;;;;*%Oo&@.      ",
"      .#o==-;::::::<344444444444444444444443<::::::;-==o#.      ",
"  .....XO==-;::::::53444444444444444444444435::::::;-==OX.....  ",
"  .+@#X$%-->,<111156789999999999999999999987651111<,>--%$X#@+.  ",
"  .@&oO%*;;,233333370qqqqqqqqqqqqqqqqqqqqqq073333332,;;*%Oo&@.  ",
"  .#o==-;::<34444448qwwwwwwwwwwwwwwwwwwwwwwq84444443<::;-==o#.  ",
"  .Xo==-;::134444449qwwwwwwwwwwwwwwwwwwwwwwq944444431::;-==oX.  ",
"  .Xo==-;::13444999eqwwwwwwwwwwwwwwwwwwwwwwqe99944431::;-==oX.  ",
"  .Xo==-;::13449rqqqwwwwwwwwwwwwwwwwwwwwwwwwqqqr94431::;-==oX.  ",
"  .Xo==-;::13449qwwwwwwwwwwwwwwwwwwwwwwwwwwwwwwq94431::;-==oX.  ",
"...XO==-;::53449qwwwwwwwwwwwwwwwwwwwwwwwwwwwwwwq94435::;-==OX...",
"XXX$%-->,<56t449qwwwwwwwqqqqqqqqqqqqqqqqwwwwwwwqe98765<,>--%$XXX",
"ooO%*;;,233ty449qwwwwwwqe99999999999999eqwwwwwwwqqq07332,;;*%Ooo",
"===-;::<34444449qwwwwwwq9444444444444449qwwwwwwwwwwq8443<::;-===",
"===-;::134444449qwwwwwwq9u444444444444u9qwwwwwwwwwwq94431::;-===",
"===-;::13444999ipqqqqqqasddddddddddddddsaqqqwwwwwwwq94431::;-===",
"===-;::13449rqqpi999999sfghhhhhhhhhhhhgfs99eqwwwwwwq94431::;-===",
"===-;::13449qwwq944444udgjkkkkkkkkkkkkjgdu49qwwwwwwq94431::;-===",
"===-;::13449qwwq944444lzhkkkjjjjjjjjkkkhzlu9qwwwwwwq94431::;-===",
"===-;::13449qwwq944xcdzvbkknmMMMMMMmnkkbvzdsaqqqqqqr94431::;-===",
"===-;::13449qwwq944cNghbBkjmVCCCCCCVmjkBbhgfs999999944431::;-===",
"===-;::13449qwwq944dgjkkkkjMC::::::CMjkkkkjgdu44444444431::;-===",
"===-;::13449qwwq944dhkkkjjjMC::::::CMjjjkkkhd444444444431::;-===",
"===-;::13449qwwq944dhkknmMMZA::::::AZMMmnkkhd444444444431::;-===",
"===-;::13449qwwq944dhkjmVCCAS::::::SACCVmjkhd444444444431::;-===",
"===-;::13449qwwq944dhkjMC::::::::::::::CMjkhd444444444431::;-===",
"===-;::13449qwwq944dhkjMC::::::::::::::CMjkhd444444444431::;-===",
"===-;::13449qwwq944dhkjMC::::::::::::::CMjkhd444444444431::;-===",
"===-;::13449qwwq944dhkjMC::::::::::::::CMjkhd444444444431::;-===",
"===-;::13449qwwq944dhkjMC::::::::::::::CMjkhd444444444431::;-===",
"===-;::13449qwwq944dhkjMC::::::::::::::CMjkhd444444444431::;-===",
"===-;::13449qwwq944dhkjmVCCAS::::::SACCVmjkhd444444444431::;-===",
"===-;::13449qwwq944dhkknmMMZA::::::AZMMmnkkhd444444444431::;-===",
"===-;::13449qwwq944dhkkkjjjMC::::::CMjjjkkkhd444444444431::;-===",
"===-;::13449qwwq944dhkkkjjjMC::::::CMjjjkkkhd444444444431::;-===",
"===-;::13449qwwq944dhkknmMMZA::::::AZMMmnkkhd444444444431::;-===",
"===-;::13449qwwq944dhkjmVCCAS::::::SACCVmjkhd444444444431::;-===",
"===-;::13449qwwq944dhkjMC::::::::::::::CMjkhd444444444431::;-===",
"===-;::13449qwwq944dhkjMC::::::::::::::CMjkhd444444444431::;-===",
"===-;::13449qwwq944dhkjmVCCCCCCCCCCCCCCVmjkhd444444444431::;-===",
"===-;::13449qwwq944dhkknmMMMMMMMMMMMMMMmnkkhd444444444431::;-===",
"===-;::13449qwwq944dhkkkjjjjjjjjjjjjjjjjkkkhd444444444431::;-===",
"===-;::13449qwwq944dgjkkkkkkkkkkkkkkkkkkkkjgd444444444431::;-===",
"===-;::13449qwwq944cNghhhhhhhhhhhhhhhhhhhhgNc444444444431::;-===",
"===-;::13449qwwq944xcddddddddddddddddddddddcx444444444431::;-===",
"===-;::13449qwwq94444444444444444444444444444444444444431::;-===",
"===-;::13449qwwq94444444444444444444444444444444444444431::;-===",
"===-;::13449qwwqe9999999999999999999999999999999999944431::;-===",
"===-;::13449qwwwqqqqqqqqqqqqqqqqqqqqqqqqqqqqqqqqqqqr94431::;-===",
"===-;::13449qwwwwwwwwwwwwwwwwwwwwwwwwwwwwwwwwwwwwwwq94431::;-===",
"===-;::13449qwwwwwwwwwwwwwwwwwwwwwwwwwwwwwwwwwwwwwwq94431::;-===",
"===-;::13449rqqqqqqqqqqqqqqqqqqqqqqqqqqqqqqqqqqqqqqr94431::;-===",
"===-;::13444999999999999999999999999999999999999999944431::;-===",
"===-;::13444444444444444444444444444444444444444444444431::;-===",
"===-;::13444444444444444444444444444444444444444444444431::;-===",
"===-;::13444444444444444444444444444444444444444444444431::;-==="
};
