/* XPM */
static char *ed5d5b0d81794635ec4eaff146ca391aQdl5UCMFxoyE0w7u[] = {
/* columns rows colors chars-per-pixel */
"64 64 197 2 ",
"   c #462D45",
".  c #432C44",
"X  c #32253B",
"o  c #2F243A",
"O  c #2B2135",
"+  c #100C12",
"@  c #0C090D",
"#  c #100D11",
"$  c #0C090E",
"%  c #100D12",
"&  c #0E0A10",
"*  c #1A1224",
"=  c #1C1327",
"-  c #1E1428",
";  c #2A1831",
":  c #2F1B34",
">  c #432B43",
",  c #442C44",
"<  c #31253B",
"1  c #32253C",
"2  c #141017",
"3  c #2C1A33",
"4  c #2F2339",
"5  c #2E2339",
"6  c #2C1932",
"7  c #0F0C11",
"8  c #191121",
"9  c #1C1326",
"0  c #28172F",
"q  c #2D1A33",
"w  c #402941",
"e  c #412A42",
"r  c #34263C",
"t  c #412B43",
"y  c #100B13",
"u  c #1C1426",
"i  c #20152A",
"p  c #31243A",
"a  c #2D1B34",
"s  c #30243B",
"d  c #311D36",
"f  c #2C2236",
"g  c #110E14",
"h  c #191122",
"j  c #2B2036",
"k  c #2D2137",
"l  c #2C1A32",
"z  c #2E2238",
"x  c #2E2439",
"c  c #2C2136",
"v  c #271E30",
"b  c #100C11",
"n  c #100B11",
"m  c #120D13",
"M  c #130D13",
"N  c #0D090E",
"B  c #0D0A0F",
"V  c #181121",
"C  c #2B1932",
"Z  c #2E1B34",
"A  c #412941",
"S  c #281F31",
"D  c #130F16",
"F  c #1B1225",
"G  c #1E152A",
"H  c #2D2238",
"J  c #2C1B34",
"K  c #2F1C35",
"L  c #2F233A",
"P  c #2B2136",
"I  c #140F17",
"U  c #0F0B11",
"Y  c #25162A",
"T  c #29182F",
"R  c #2B2034",
"E  c #2D2236",
"W  c #3D283E",
"Q  c #40293F",
"!  c #3A2539",
"~  c #120D12",
"^  c #0B090C",
"/  c #1E1429",
"(  c #20142A",
")  c #2D1932",
"_  c #1E1529",
"`  c #2F2239",
"'  c #0F0A10",
"]  c #130C15",
"[  c #29172E",
"{  c #472D46",
"}  c #160F17",
"|  c #1C1325",
" . c #28182F",
".. c #0C090C",
"X. c #0F0B10",
"o. c #29172F",
"O. c #2C1931",
"+. c #432B42",
"@. c #2C1930",
"#. c #28182E",
"$. c #2B1A32",
"%. c #0D0A0E",
"&. c #2A1932",
"*. c #2C1933",
"=. c #32243B",
"-. c #2E2237",
";. c #1C1225",
":. c #27162D",
">. c #28172E",
",. c #110D14",
"<. c #191222",
"1. c #1D1326",
"2. c #2A1830",
"3. c #2F243B",
"4. c #412B42",
"5. c #110D13",
"6. c #140F18",
"7. c #27172D",
"8. c #2B1931",
"9. c #442B43",
"0. c #34263D",
"q. c #130E15",
"w. c #2B1831",
"e. c #3E293E",
"r. c #161018",
"t. c #321D36",
"y. c #120F15",
"u. c #0E0B11",
"i. c #3D273D",
"p. c #2C1B33",
"a. c #130E16",
"s. c #16111A",
"d. c #30243A",
"f. c #301C35",
"g. c #2B1930",
"h. c #26162B",
"j. c #291930",
"k. c #130E17",
"l. c #25152A",
"z. c #29182E",
"x. c #0E0A0F",
"c. c #291830",
"v. c #120E14",
"b. c #161019",
"n. c #1C1328",
"m. c #30253B",
"M. c #281E31",
"N. c #0F0D11",
"B. c #131016",
"V. c #110C14",
"C. c #2A1930",
"Z. c #150E19",
"A. c #120D15",
"S. c #120D16",
"D. c #110C15",
"F. c #0C0A0E",
"G. c #0E0A11",
"H. c #100B12",
"J. c #29192F",
"K. c #130D15",
"L. c #2D1C34",
"P. c #2E2138",
"I. c #31243B",
"U. c #17121B",
"Y. c #2F2439",
"T. c #130F15",
"R. c #2D1933",
"E. c #2C2237",
"W. c #291F32",
"Q. c #100D13",
"!. c #201429",
"~. c #1A1225",
"^. c #281830",
"/. c #20162B",
"(. c #1D1427",
"). c #151019",
"_. c #0F0B13",
"`. c #130F17",
"'. c #100C13",
"]. c #301D35",
"[. c #2D1B33",
"{. c #422A43",
"}. c #20162A",
"|. c #130D14",
" X c #281E30",
".X c #2C1A30",
"XX c #1F1429",
"oX c #1D1328",
"OX c #1D1428",
"+X c #2B2035",
"@X c #2E2239",
"#X c #3E283E",
"$X c #422C43",
"%X c #2A1931",
"&X c #2E2236",
"*X c #120E15",
"=X c white",
/* pixels */
"  . X o o O + @ # # $ @ @ $ # % % % % # @ & * = = - ; : >         , < o o X ,             , 1 O 2 % % # @ & * - ; 3 4 5 3 6 6 6 ",
"  . X o o O + @ # # $ @ @ $ 7 # # # # 7 @ & 8 * * 9 0 q w > > > > e r < o < t , . ,     , t X O 2 % % % & y u i ; q p p a 3 6 6 ",
"  , X o s O + @ % # @ @ @ @ @ @ @ @ @ @ @ @ & & & y 9 i q : : : : d e t < o < X < r , , r < s f 2 % % g h u j k l : e t p z 3 6 ",
"> e < x c v + @ 7 b n n + + + + m M M m N @ @ @ @ B V 9 0 ; ; ; C Z A e < o o o o < t t < x c S D % % g F G H 4 J K A e < 4 3 6 ",
": K L P I 7 $ @ @ U Y T R O O E W Q Q ! ~ ^ @ @ @ @ B y 9 / - ( ; ) : K 4 o o o o o < < s c I + % % % g * _ H o 4 ` K K 4 4 3 6 ",
"3 J L O + ^ @ @ ' ] [ q 4 o o X t , { Q } U + + + + @ B V * * |  .; ; C z 4 4 4 o o o x c v 7 @ 7 % % g * _ k 4 o 4 J J 4 4 a 3 ",
"4 4 o O + @ ..X.Y o.O.3 4 o o o < r , +.@.#.R O O v 7 @ & & & y 9 / - i $.q q a L o s c I 7 $ @ @ %.# g F / &.a 4 o 4 4 o o 4 4 ",
"o o o O + @ X.] o.*.3 a 4 o o o o < t e d K =.1 1 -.I 7 @ @ @ B V * * ;.:.>.>.T R O O v 7 ..@ @ @ @ 7 ,.<.1.2.3 z 4 o o o o o o ",
"o o 3.O + ' Y T O.3 z 4 o o o o o o < r e > , , , 4.-.v 7 ..@ @ & & & & U n n n + + + 7 @ @ @ @ @ @ @ %.5.6.T 6 3 a 4 o o o o o ",
"X < f v 7 U 7.8.6 3 z 4 4 4 4 4 4 4 o < t , > 9.  , 0.-.I 7 $ @ @ @ @ @ @ @ @ %.7 + + + + + + + + + $ @ 7 q.7.w.6 3 4 o o o 4 4 ",
", e.r.U @ & ;.( ; 6 3 3 3 3 3 3 3 a 4 o < p K t.>   , 4.-.v + @ @ @ 7 # 7 7 7 y.S O O O O O O O O v 7 ..@ u.| ( ; q 4 o o 4 a 3 ",
"9.i.m ^ @ & * - ; 6 6 6 3 3 3 3 6 3 z 4 o 4 p.K >     , 1 O + @ @ %.% % q.a.q.s.f s X 1 1 X d.o s c I 7 @ & h 9  .$.z 4 4 z 3 6 ",
"f.g.n @ @ & * / ; 6 6 3 z 4 4 z 3 6 3 a 4 o 4 p ,     . 1 O + @ 7 % % q.h.T [ j.5 < t , , t < o o x c v 7 @ 5.k.9 i $.q 3 3 6 6 ",
">.l.U @ @ & V 9  .w.6 3 4 o o 4 a 3 3 a 4 o o < t ,   . 1 O + @ 7 % % a.T *.q a 4 < t ,   , r < X < s c I + 7 5.h 9 0 ; ; ; ; ; ",
"n U @ @ @ @ B y | ( ; q 4 o o o 4 4 4 4 o o o o < r , , 1 O + @ @ %.7 q.z.q z 4 o o < r ,   , , , t < x c v + @ x.y 9 / - - - - ",
"@ @ @ @ @ @ @ & * - c.$.z 4 4 4 o o o o o o o o o < t t X O + @ @ %.v.b.T q 4 o o o o < e > > 9.  , r < s c I 7 @ x.h F F F F F ",
"@ @ @ @ @ @ @ & * n.- i $.q 3 a 4 o o o o o o o o o X X m.O + @ @ U h.T 6 3 4 o o o o 4 K : : t.9.  , t < x c v 7 $ ,.g g g g g ",
"+ + + + $ @ @ & 8 * * ;.:.[ 2.C z 4 4 4 4 4 4 4 4 5 P O P M.+ @ @ n [ *.6 3 4 o o o o 4 3 6 6 Z w 9.  , X o s O + @ N.% N.% D B.",
"O O O v 7 ..@ @ & & & & U V.9 i $.q q q q q q q q C.Z.A.S.D.N @ @ n >.6 6 3 4 o o o o 4 3 6 6 6 Z t.9., X o s O + @ # % F.+ S f ",
"1 X m.c I 7 $ @ @ @ @ @ @ & V ;.:.>.>.>.>.>.>.>.z.h.V.G.G.& %.$ @ H.7.8.6 3 z 4 o o o 4 a 3 3 3 3 K e t < x c v + %.7 b U a.c s ",
", t < x c v + @ @ @ 7 # # 7 & & U n U U U U U n q.q.% + + + 7 7 7 ,.9 ( w.6 3 a 4 o o o 4 4 4 4 4 4 < < d.O I + % 7 F.U l.J.5 o ",
"> e r < m.O + @ @ %.% % % % %.@ @ N U U U U U H.D B.2 2 2 2 2 D % g h 9  .w.6 3 z 4 o o o o o o o o o o o O + @ 7 b U K.J.L.4 o ",
": d e t X O + @ 7 % % % % % # # 7 v.h.[ >.>.>.T R O O O O O f S D 7 & y 9 ( 8.6 3 a 4 o o o o o o o o o s O + @ @ n Y J.P.4 o o ",
"6 Z A e X O I + % % % % % % % % q.b.T *.q q q L.I.1 1 1 1 X s f U.y.%.& V ;.7.[ O.3 z 4 4 4 4 4 o o o Y.c v + @ B V.[ q 4 o o o ",
"6 6 : K 4 Y.f S D % % % % % % q.h.T O.3 z 4 5 p t , . . , t < x f S T.7 & & U ] o.R.q q q q q a L o s c I 7 @ & V 9 2.q 4 o o o ",
"3 3 3 J 4 o E.W.D % % % % % q.b.T *.3 a 4 o < r ,         , r < s f U.T.%.@ @ U Y [ >.>.>.>.>.T R O O v + @ @ & * - c.$.z 4 o o ",
"4 4 4 4 o f U.D Q.% % % % q.h.T 6 3 z 4 o < t ,             , t < x f S T.7 # b n n n n n n n n + + + + % 7 @ & * n.- !.C a 4 o ",
"4 5 H H f S D # % % # % ,.6.T 6 6 3 4 o o < t , > > > > > >   , r < s f U.D Q.# %.@ @ @ @ @ @ @ @ @ @ %.% % %.& 8 ~.= - ^.C z 4 ",
"q $./.(.).D Q.% % % %.& h 1.2.6 6 3 4 o o o < p K : : : : t.9.  , t < x f S D % # # # 7 $ @ @ @ 7 7 # % % % % 7 & _.~.n.- i $.q ",
">.7.9 <.,.% % % % 7 & y 9 ( ; 6 3 a 4 o o o o 4 J 3 3 3 3 K w 9.  , X o 3.c D 7 % % % 7 @ @ U H.q.q.% # # # % % %.& 8 * * ;.:.>.",
"n H.,.g % % % # %.& V 9  .w.6 3 z 4 o o o o o o 4 4 4 4 4 ` K t.9., < o o O + @ % % %.@ @ X.Y [ T h.U @ @ %.7 % % 7 & & & & U n ",
"@ %.N.% % % % # @ & * / ; 6 6 3 4 o o o o o o o o o o o o 4 3 : > , r < d.O `.+ % 7 @ @ X.] o.*.*.[ ] U + '.D D % 7 %.@ @ @ @ @ ",
"7 7 % % % % % # @ & * - ; 6 6 3 4 o o o o o o o o o o o o 4 3 : >   , t < x c v + @ @ U Y o.6 6 6 O.[ #.R O f S + @ 7 # # # # # ",
"2 2 2 D % # % # @ & ;.( ; 6 6 3 4 o o o o o o o o o o o o 4 3 : w > > e < o s O + @ @ n [ *.6 6 3 q : ].=.1 s c I + % % % % % # ",
"O O f S + @ % % @ U 7.8.6 6 6 3 4 o o o o o o o o o o o o 4 3 6 : : : K 4 o o O + @ @ n >.6 6 3 z p e > , t < x c S D % % # %.@ ",
"o d.1 -.I + % 7 @ n >.6 6 6 6 3 4 o o o o o o o o o o o 4 z 3 6 6 6 3 J 4 o o O + @ @ U 7.8.6 3 4 < t , , t < o 3.f 2 % # b n n ",
"o < t 4.-.v + @ @ n >.6 6 6 6 3 4 o o o o o o o o o o 4 a 3 6 6 6 3 z 4 o o o O + @ @ & ;.( ; q 4 o < X X < o o 3.f 2 7 F.U Y [ ",
"o < e e 0.E + @ @ n >.6 6 6 6 3 z 4 4 4 o o 4 4 4 4 4 z 3 6 6 6 6 3 4 o o o o O + @ @ & V 9 0 C k H 5 5 5 5 4 5 c S T.7 U K.J.[.",
"o 4 K d {.W m @ @ n >.6 6 6 6 6 3 3 3 a 4 4 a 3 3 3 3 3 6 6 6 6 6 3 4 o o o s O + @ @ @ B y 9 / _ }.$.q q q q J.a.7 %.n Y J.z 4 ",
"o 4 p.K A i.|.@ @ n >.6 6 6 ; ; 6 6 6 3 z z 3 6 6 6 6 6 6 6 3 3 3 a z 5 O O O  X+ @ $ @ @ B V * * ;.:.>.>.>.[ l.' ..@ U 7.$.z 4 ",
"o o 4 ` K .Xq.7 @ n [ R.6 8.XXXX; 6 6 6 3 3 6 6 6 6 6 6 6 3 z 4 4 z a J.a.+ + + + # # 7 @ @ & & & & U n n n n U @ @ @ & ;.i $.q ",
"4 4 4 P.T Y q.N.%.n Y [ >.7.oXOXc.; 6 6 6 6 6 6 6 6 6 6 6 3 z 4 4 z q >.U ..@ %.# % % % %.$ @ @ @ @ @ @ @ @ @ @ @ @ @ & V 9  .; ",
"q q q J.K.U % % % b n n n V.F n.- ( 8.6 6 6 6 6 6 6 6 6 6 6 q q q q R.[ n @ 7 % % % % % # # 7 7 @ @ @ @ @ @ @ @ @ @ @ @ B y 9 / ",
">.>.[ l.' @ 7 # # 7 %.@ @ B 8 * * ;.7.>.>.[ 2.; ; ; 6 6 6 6 [ >.>.>.[ Y n %.% % % % % % % Q.D D '.+ + + + + + + %.$ $ @ @ B V * ",
"n n n U @ @ @ @ @ %.7 7 @ @ & & & & U n n V.9 / - ( 8.6 *.o.] U n n n n b % % % % % % % # D S c O O O O O O O S y.7 # 7 @ @ & & ",
"@ @ @ @ @ $ + + + '.D D Q.7 @ @ @ @ @ @ @ B V * * ;.7.>.[ Y X...@ @ @ @ 7 % % % # % q.D D U.f 3.o d.X X d.o 3.f U.D Q.# %.$ @ @ ",
"G.& @ @ ..7 v O O O O O O v 7 ^ @ @ @ @ @ @ & & & & U n n U @ @ @ @ @ @ @ %.% % %.n h.J.+Xf Y.o o < t t < o o Y.f S D # # # # # ",
"G.G.@ @ ' a.c m.X 1 1 X m.c I + + + $ @ @ @ @ @ @ @ @ @ @ @ + + + + m m N @ # # @ U 7.$.4 o o o o < e e r < o o 3.f U.D Q.% % % ",
"G.G.@ ' l.J.@X< t , , t < x O O O v 7 ..@ @ @ @ @ @ 7 7 @ 7 v O O E #X! m @ # # @ & ;.}.H o o o o 4 K d e t < o o Y.f S D # % % ",
"G.G.U K.J.L.4 < e 9.  , r < d.o s c I 7 $ @ @ @ @ %.% % & A.+XL o X $X#Xm @ # # @ & * _ k 4 o o o 4 p.K A e p 4 o o 3.f U.D Q.% ",
"@ U l.J.P.4 o 4 K t.9.  , t < o o Y.c v + @ @ @ 7 % % g h 9 %Xa 4 o 1 &X+ @ # % @ & * / C a 4 o o o 4 ` K : q a 4 o o Y.f S D % ",
"@ n [ q 4 o o 4 p.K w > > e r < o o s O + @ @ %.% % % g h 9 0 C z 5 f S + %.7 7 @ & V 9 0 C z 4 4 4 o 4 J 3 3 a 4 o o o 3.f 2 % ",
"@ n >.q 4 o o o 4 ` K : : d e t < o s O + @ 7 % % % % % & y 9 i $.C.s.D % 7 %.@ @ @ B y 9 i $.q 3 a 4 o 4 4 4 4 o o o o o O 2 % ",
"@ n >.q z 4 o o o 4 3 6 6 Z A e < x c v + @ # % % % % # @ B V ;.7.h.v.7 # 7 @ @ @ @ @ B V ;.:.[ O.3 z 4 4 4 4 4 o o 4 4 4 +XD % ",
"@ n [ R.3 a 4 o o 4 3 6 6 6 : K L P I 7 $ $ # % % % % # @ @ B & U ' N @ @ @ @ @ @ @ @ @ & & U ] [ 6 3 3 3 3 3 a 4 4 a q q J.D % ",
"@ U Y [ 2.$.5 o o 4 a 3 3 3 3 J L O + ^ @ $ # % # # # b n n + + + + + + + + + + + + $ @ @ @ ..U 7.8.6 6 6 6 6 3 z z j.[ T h.q.% ",
"@ @ U V.9 /.H o o o 4 4 4 4 4 4 3.O + @ @ $ # % %.@ @ U l.T R O O O O O O O O O O v 7 ^ @ @ @ & ;.( w.6 6 6 6 6 q C.b.q.a.q.% % ",
"$ $ @ & V u j H 5 4 4 4 4 4 o o f S + @ $ %.7 b n n U K.J.L.L o o o o o o d.X X m.c I + + + @ & h 9 7.z.z.z.z.z.T h.q.% % % % % ",
"7 7 # 7 & y u /.$.q q q q a L f U.D % # # 7 F.U Y [ >.T P.4 o o o o o o o < t t < x O O O v 7 @ ,.*Xa.a.a.a.a.a.a.q.% % % % % % ",
"2 D Q.# %.& V ;.:.>.>.>.>.T +XS D # % % % b U ] o.*.6 q 4 o o o o o < X < r , , r < d.o s c I + b N.% % % % % % 7 % D 2 2 2 2 2 ",
"f S D # % 7 & & U n n n n H.D D Q.% % # %.n Y T 6 6 6 3 4 o o o o < t , . ,     , t < o o Y.c v + %.# % % % % # F.+ S f O O O O ",
"3.f U.D % 7 %.@ @ @ @ @ @ %.7 % % % % # @ U 7.8.6 6 6 3 z 4 o o o < t ,           , r < o o s O + @ # % % % # b U a.c 3.4 L X 1 ",
"o Y.f S + %.7 7 @ @ 7 # # # % % % % % # @ & ;.( ; 6 6 6 3 a 4 o o o < r ,           , t < o o O + @ # % % # %.n Y J.5 4 J K e , ",
"o o s O + @ % % $ $ # % % % % % % % % # @ & * - ; 6 6 6 6 3 4 o o o o < .             , X o o O + @ # % % # @ n [ [.4 4 3 : >   "
};
