/* XPM */
static char *_1730d0cb56f41cafe8bf48e59097b67QBY2CQiLlR9qh0aM[] = {
/* columns rows colors chars-per-pixel */
"64 64 66 1 ",
"  c black",
". c #040303",
"X c #060707",
"o c #070808",
"O c gray3",
"+ c #0B090C",
"@ c #0C090D",
"# c #0F0B10",
"$ c #0F0C11",
"% c #100B11",
"& c #100C12",
"* c #130C15",
"= c #140F17",
"- c #0F1010",
"; c #101010",
": c #121214",
"> c #141017",
", c #151515",
"< c #161018",
"1 c gray10",
"2 c #1E1E1E",
"3 c #181121",
"4 c #1A1224",
"5 c #1C1326",
"6 c #1D1427",
"7 c #1C1328",
"8 c #1E1429",
"9 c #20142A",
"0 c #25152A",
"q c #27172D",
"w c #28172E",
"e c #29182F",
"r c #2B1930",
"t c #2C1931",
"y c #281F31",
"u c #2D1B34",
"i c #2F1C35",
"p c #301C35",
"a c gray18",
"s c #2B2135",
"d c #2D2236",
"f c #2E2238",
"g c #2F243A",
"h c #30253B",
"j c #32253C",
"k c #34263C",
"l c #462D45",
"z c #443A4E",
"x c #464747",
"c c #4B4C4C",
"v c #515253",
"b c #525353",
"n c #535454",
"m c #545555",
"M c #676868",
"N c #686969",
"B c #D8D13B",
"V c #D183B4",
"C c gray81",
"Z c #D3D4D4",
"A c #D5D5D5",
"S c #D8D8D8",
"D c #DDDDDD",
"F c #FFD7C9",
"G c #FFD8CA",
"H c white",
/* pixels */
"llgggg&@&&@@@@&&&&&&@#4558rullllllhgghlllllllljs>&&&@#48rtggtttt",
"llgggg&@&&@@@@$&&&&$@#3445wtllllllkhghllllllllhs>&&&#%69rtgguttt",
"llgggg&@&&@@@@@@@@@@@@###%59tuuuupllhghhhkllkhhd>&&*36ggtullggtt",
"llgggg&@$&%%&&&&&&&&@@@@@@35wrrrrullhgggghllhgdy*&&*48gguillggtt",
"iigg=$@@@#0egggglllHHHHHHHHHH889rtuifggggHHHHHHHHH&*48gggfiiggtt",
"iigg&+@@#*wtfggglllH        H445errrffffgH       H&*48gggguuggut",
"gggg&@@#0wttfggggggH        H##%5889rttufH       H&*48rugggggggg",
"gggg&@#*wttufgggHHHH        HHHHHHHHHHHHHH       HHHHHrtgggggggg",
"gggg&#0ettffllggH   xxxxaaaa              xxxaaaa    Hettugggggg",
"gggg$#qrttffffggH   xxxxaaaa              xxxaaaa    Hqrttgggggg",
"ll<#@#59rtttttttH   xxxxaaaa              xxxaaaa    H59rtggggut",
"ll&+@#48rtttHHHHH OOxxxcaaaa              xccaaaa    H35erggggtt",
"pr%@@#48rtttH    ,aaaaaaaaaaaaaaaaaaaaaaaaaaaaaaa    H&*59rttttt",
"w0#@@#35erttH    ,aaaaaaaaaaaaaaaaaaaaaaaaaaaaaaa    H$&35wrrrrr",
"%#@@@@@%59rtH    ,aaaaaaaaaaaaaaaaaaaaaaaaaaaaaaa    HHHH%588888",
"@@@@@@@#48rrH    ,aaaaaaaaaaaaaaaaaaaaaaaaaaaaaaaaaaa   H@344444",
"@@@@@@@#4789H    ,aaaaaaaaaaaaaaaaaaaaaaaaaaaaaaaaaaa   H@******",
"&&&&@@@#3445H    1aaaaaaaaaaaaaaaaaaaaaaaaaaaaaaaaaaa   H@$&$&*:",
"gggg$@@@####H    1aaaaaaaaaaaaaaaaaaaaaaaaaaaaaaaaaaa   H@&&@&gg",
"jggg=$@@@@@@H    vnnaaaaaaaaaaaaaaaaaaaaaaaaaaaaaaaaa   H@$&#*gg",
"llgggg&@@@$&H    nnnaaaaaaaaaaaaaaaaaaaaaaaaaaaaaaaaa   H$@#iigg",
"llghhg&@@@&&H    nnnaaaaaaaaaaaaaaaaaaaaaaaaaaaaaaaaa   H&#*iifg",
"upllgg&@$&&&H    nnnaaaaaaaaaaaaaaaaaaaaaaaaaaaaaaaaa   H%iigggg",
"tullgg=&&&&&H    nnnaaaaaaaaaaaaaaaaaaaaaaaaaaaaaaaaa   H*iigggg",
"ttuigggg*&&&H    nnnaaaaaaaaaaaaaaaaaaaaaaaaaaaaaaaaa   H5iigggg",
"tttufggg*&&&H    nnnaaaaaaaannnSSSAaaaaaaaaaaaaaaAACC   H8iigggg",
"gggggg<*&&&&H    nnnaaaaaaaannnSSSAaaaaaaaaaaaaaaAACC   H789iigg",
"gggggg*&&&&&H    nnnaaaaaaaannnSSSAaaaaaaaaaaaaaaAACC   H458iigg",
"tr96<*&&&&@#H    nnnaaaaaaaannnDDDSaaaaaaaaaaaaaaSSZZ   H#4789ii",
"wq63*&&&&$#%H    nnnaaaaaaaannnnnnnaaaaaaaaaaaaaannnn   H#3445ii",
"%%**&&&&@#35H    nnnaaaaaaaannnnnnnaaaaaaaaaaaaaannnn   H$#####%",
"@@$&&&&&@#48H    nnnaaaaaaaannnnnnnaaaaaaaaaaaaaannnn   H$@@@@@@",
"$$&&&&&&@#48H    aaaaaaaaaaannnnnnnFFFFFFFFFFFFFFnnnn   H@$&&&&&",
">>>*&&&&@#59H    aaaaaaaaaaannnnnnnFFFFFFFFFFFFFFnnnn   H&&&&&&&",
"gggg&@&&@#qrH    aaaaaaaaaaannnnnnnFFGFFFFFFFGGGFnnnn   Hg*&&&@@",
"gggg=&&$@%wtH    aaaaaaaaaaannnnnnnFFGFFFFFFFGGGFnnnn   Hg>&&&%%",
"ggllgg&@@%wtH       VVVVVVVVVVVFFFFFFGGGGGGGGGGGFVVVV   Hg>$@#ii",
"ggllgd&@@%wtH       VVVVVVVVVVVFFFFFFFFFFFFFFFFFFVVVV   Hg*$#*ii",
"ggipll&@@%wtH       VVVVVVVVVVVFFFFFFFFFFFFFFFFFFVVVV   H$@%iigf",
"gftill*@@%wtHHHHH                                       H@@#iigg",
"ggggit*$@%wttr88H       OOOOOOOooooooo    oXX           H@@#59ii",
"gggge0*$@%0wwq78H       OOOOOOOooooooo    oXX           H@@#35ii",
"ttte*#&&&&%%HHHHH       OOOOOOOooooooo    oXX           H@@@@%58",
"www0#@$&&$@@H       ...Ovvvvvvvvvvvvvvvvvvvvv    HHHHHHHH@@@@@34",
"%%%#@@@@@@$$H       ...Ovvvvvvvvvvvvvvvvvvvvv    Hgggggg*$&$@@##",
"@@@@@@&&&HHHH       OOO;vvnnnnnnnnnnnnnnnnnnn    HHHHHgg<*&&@@@@",
"##@@@$gggH   aaaaaaavvvvvvvvvnnBBBBBBBnnnnBBBnnnv    Hgggg*&&&&&",
"##@@#*gggH   aaaaaaavvvvvvvvvnnBBBBBBBnnnnBBBnnnv    Hgggg<*&&&&",
"##@#iHHHHH   aaaaaaavvvvvvvvvnnBBBBBBBnnnnBBBnnnv    Hhggggg*&&&",
"###*iH       aaaavvv;;;;vvnnvnnnnnnBBBBBBBnnnnnnv    Hhfgggg<*&&",
"@#iigH       aaaavvv;;;;vvnnvnnnnnnBBBBBBBnnnnnnv    Hiigggggg*&",
"@%iigH       aaaavvv---;vvvvmnnnnnnBBBBBBBnvvvvvv    Hiigggggg>&",
"@%iigH       aaaavvv---;vvvvmnnnnnnBBBBBBBnvvvvvv    Hffgggggg>&",
"@%iigH    aaa       vvvvvvvvMMMnnnnnnnnnnnvvvvvvv    Hffggffgg*&",
"@%iiiH    aaa       vvvnvvvvMMM222;:::::nnnvvvvvv    Hiugfitte*&",
"@#iiiH    aaa       vvvnvvvvMMM222;:::::nnnvvvvvv    Hiiffree0*&",
"@@#*5H              vvvnvvvvNMM           vvvMMMM    Hiiir<***&&",
"@@@#3H              vvvvvvvvMMM           vvvMMMM    Hiii0*&&&&&",
"$$&$#H              vvvvvvvvMMM           vvvMMMM    H****&&&&&&",
">*&&@H              vvvvvvvvMMM           vvvMMMM    H&&$&*>>>>>",
"gg*&&HHHHHHHHHHHH              HHHHHHH    X      HHHHH&&@&gggggg",
"gg<*&$@@@@@@@@$&H              HgglllH    X      H&&&&&&#*gggggg",
"gggg&@$$@@$&&&&&H              HgggglH           H&&&&@%iigggill",
"gghz&@&&@@&&&&&&HHHHHHHHHHHHHHHHggghlHHHHHHHHHHHHH&&&&@%iiggiill"
};
