/* XPM */
static char *_c3a6eb472fc4529bd063146057666cfniyKwWlIf5aZwOF8[] = {
/* columns rows colors chars-per-pixel */
"64 64 106 2 ",
"   c None",
".  c #030303",
"X  c #070808",
"o  c #090909",
"O  c #150C12",
"+  c #180E15",
"@  c #0F1010",
"#  c #131414",
"$  c #1C1716",
"%  c #1C1816",
"&  c #1C1C1C",
"*  c #20201D",
"=  c #2F2E1B",
"-  c #31301B",
";  c #261D23",
":  c #242424",
">  c #2A2026",
",  c #2D2D2D",
"<  c #353421",
"1  c #343434",
"2  c #3F3233",
"3  c #3E363C",
"4  c #3E3E3E",
"5  c #46413F",
"6  c #533B43",
"7  c #3F4041",
"8  c #444444",
"9  c #474849",
"0  c #4A4B4B",
"q  c #5B5B48",
"w  c #554D53",
"e  c #5C4F50",
"r  c #4F5050",
"t  c #535454",
"y  c #5B5255",
"u  c #5C545A",
"i  c #5C5D5D",
"p  c #605455",
"a  c #615F5D",
"s  c #61614F",
"d  c #75744D",
"f  c #636350",
"g  c #63605E",
"h  c #5F6060",
"j  c #636464",
"k  c #676868",
"l  c #686969",
"z  c #726061",
"x  c #74676C",
"c  c #766F6C",
"v  c #BB545D",
"b  c #C95768",
"n  c #CE5C6C",
"m  c #D1CA36",
"M  c #D7D03C",
"N  c #D9D23C",
"B  c #E3DB32",
"V  c #EBE339",
"C  c #FCF336",
"Z  c #AC6395",
"A  c #B36A9C",
"S  c #BB6EA3",
"D  c #C16EA7",
"F  c #C377A7",
"G  c #C974AD",
"H  c #C77AAB",
"J  c #D777B1",
"K  c #D183B4",
"L  c #DB81B3",
"P  c #D6B6AB",
"I  c #DFB5B1",
"U  c #E2BEB1",
"Y  c #EBBFBB",
"T  c #E7C3B6",
"R  c #E8C4B7",
"E  c #EEC9BD",
"W  c #EFCABD",
"Q  c #F0CBBE",
"!  c #C8C8C8",
"~  c gray79",
"^  c #CACACA",
"/  c #CBCBCB",
"(  c gray80",
")  c gray81",
"_  c #C9C9C9",
"`  c #D3D4D4",
"'  c gray83",
"]  c #D5D5D5",
"[  c #D8D8D8",
"{  c gray85",
"}  c #DDDDDD",
"|  c #FBCDC7",
" . c #FFD6C8",
".. c #FFD7C9",
"X. c #FFD8CA",
"o. c #E2E2E2",
"O. c #E4E4E4",
"+. c gray90",
"@. c #E7E7E7",
"#. c #E4E4E4",
"$. c gray91",
"%. c #E9E9E9",
"&. c gray99",
"*. c #FEFEFE",
"=. c white",
"-. c #FFFFFF",
/* pixels */
"                                                                                                                                ",
"                                                                                                                                ",
"                                                                                                                                ",
"                                                                                                                                ",
"                                                                                                                                ",
"                                                                                                                                ",
"                                                                                                                                ",
"                                                                                                                                ",
"                                                                                                                                ",
"                                                                                                                                ",
"                                                                                                                                ",
"                                                                                                                                ",
"                                            =.=.=.=.=.=.=.=.        =.=.=.=.=.=.=.=.                                            ",
"                                            =.=.O.o.o.O.=.=.        =.=.O.o.o.O.=.=.                                            ",
"                                        =.=.=.O.1 & & 1 O.=.=.=.=.=.=.O.1 & & 1 O.=.=.=.                                        ",
"                                        =.=.O.~ : . . & ~ O.o.o.o.o.O.~ : . . & ~ O.=.=.                                        ",
"                                    =.=.=.O.1 : 9 9 , : & & & & & & & : 9 9 , : & 1 O.=.                                        ",
"                                    =.=.O.~ & X 9 0 1 , X . . . . . . o 9 0 1 , . & o.=.                                        ",
"                                    =.O.1 & # & , 1 , , , , , , , , , , 1 1 , , . & O.=.=.=.                                    ",
"                                    =.o.& . # & , , , , , , , , , , , , , , , , X & ~ O.=.=.                                    ",
"                                    =.o.& . # & , , , , , , , , , , , , , , , , , : & 1 O.=.                                    ",
"                                    =.o.& . & : , , , , , , , , , , , , , , , , , , . & o.=.                                    ",
"                                    =.o.& . 8 9 & & , , , , , , , , , , , , , , , , . & o.=.                                    ",
"                                    =.o.& X 0 0 : & , , , , , , , , , , , , , , , , . & o.=.                                    ",
"                                    =.o.& . 0 0 1 , , , , , , , , , , , , , , , , : . & o.=.                                    ",
"                                    =.o.& . 0 0 1 , , , 1 1 9 8 1 , , , , , , 1 9 4 . & o.=.                                    ",
"                                    =.o.& . 0 0 1 , , 1 0 j [ ' 8 , , , , , , 8 ' ( & & o.=.                                    ",
"                                    =.o.& X 0 0 1 , , 1 0 j } [ 9 , , , , , , 9 [ ` & & o.=.                                    ",
"                                    =.o.& X 0 r 1 , , 1 0 t j h 1 , , , , , , 1 j i X & o.=.                                    ",
"                                    =.o.& . 9 0 1 , , 1 e p t r 8 5 8 8 8 8 5 8 t 0 . & o.=.                                    ",
"                                    =.o.& . , 1 , , , 2 v v y a P R T T T T R P g 9 . & o.=.                                    ",
"                                    =.o.& . : , 1 1 3 6 b n z c E X. . . . .X.E x w X & o.=.                                    ",
"                                    =.o.& . # : 9 u S G J L Y Q  .X.X.X.X.X.X.| K A O & o.=.                                    ",
"                                    =.O.1 & # & 9 y A D S F I U U U U U U U U I H Z O & o.=.                                    ",
"                                    =.=.%.~ & . & & + + + + $ % % % % % % % % % > ; . & o.=.                                    ",
"                                    =.=.%.~ & . # # X X X X X X X X X X X . . . , , & 1 O.=.                                    ",
"                                =.=.=.O.1 & # # . X 8 0 0 0 9 9 9 9 0 0 0 7 . & ( %.o.O.=.=.                                    ",
"                                =.=.O.~ & . # & X # 0 t t t f f f f t t f q # : ~ %.=.=.=.=.                                    ",
"                            =.=.=.O.1 & : , , , 9 0 t t t f M V V M f f M M q 8 : 1 O.=.                                        ",
"                            =.=.O.~ & . , , 1 1 9 0 t t t f M V C V d d N M f 0 . & o.=.                                        ",
"                            =.O.1 & # # , 1 0 9 # # 0 t t t f d V C V M d f t 0 . & o.=.                                        ",
"                            =.o.& . # & , , 9 8 @ # 0 t t t 0 q m B B m s t t 0 . & o.=.                                        ",
"                            =.o.& . : , & & X # 8 0 t t j i : * = - - < 0 t t 0 . & o.=.                                        ",
"                            =.o.& . : : # # . X 0 t t t k j & # # # # & 0 t t 0 X & o.=.                                        ",
"                            =.o.& . . . . . . X 0 t t t l i o . . . . o 0 t j i X & o.=.                                        ",
"                            =.O.1 & & & & & . X 8 0 9 0 i t : & & & . X 8 0 i t : 1 O.=.                                        ",
"                            =.=.O.o.o.o.O.~ & . . X . X X : ~ O.O.~ & . . X X : ~ O.=.=.                                        ",
"                            =.=.=.=.=.=.=.O.1 & & & & & & 1 O.=.=.O.1 & & & & 1 O.=.=.=.                                        ",
"                                        =.=.O.o.o.o.o.o.o.O.=.=.=.=.O.o.o.o.o.O.=.=.                                            ",
"                                        =.=.=.=.=.=.=.=.=.=.=.=.=.=.=.=.=.=.=.=.=.=.                                            ",
"                                                                                                                                ",
"                                                                                                                                ",
"                                                                                                                                ",
"                                                                                                                                ",
"                                                                                                                                ",
"                                                                                                                                ",
"                                                                                                                                ",
"                                                                                                                                ",
"                                                                                                                                ",
"                                                                                                                                ",
"                                                                                                                                ",
"                                                                                                                                ",
"                                                                                                                                ",
"                                                                                                                                "
};
