/* XPM */
static char *_196852d974a4114b924487141a52f4bB1A1oqzVcPRAbboh[] = {
/* columns rows colors chars-per-pixel */
"64 64 230 2 ",
"   c #66616D",
".  c #645F6C",
"X  c #545561",
"o  c #525360",
"O  c #4B4C59",
"+  c #1E1F27",
"@  c #171821",
"#  c #1D1E28",
"$  c #181921",
"%  c #171820",
"&  c #1E1F29",
"*  c #1B1C25",
"=  c #353445",
"-  c #3A384A",
";  c #393749",
":  c #3B394B",
">  c #4A4455",
",  c #4F495A",
"<  c #635E6B",
"1  c #64606C",
"2  c #555562",
"3  c #4C4D5A",
"4  c #24252F",
"5  c #1B1B24",
"6  c #353344",
"7  c #4D4858",
"8  c #51525F",
"9  c #51515F",
"0  c #4D4758",
"q  c #4C4657",
"w  c #1D1E27",
"e  c #1A1B24",
"r  c #323040",
"t  c #383546",
"y  c #474253",
"u  c #605B68",
"i  c #615D69",
"p  c #565663",
"a  c #545461",
"s  c #625E6A",
"d  c #545562",
"f  c #1F1F29",
"g  c #383747",
"h  c #3E3C4D",
"j  c #4A4556",
"k  c #535360",
"l  c #4E4959",
"z  c #535461",
"x  c #4C4D59",
"c  c #17181F",
"v  c #3E3B4D",
"b  c #4F4959",
"n  c #514C5C",
"m  c #625D6A",
"M  c #21212C",
"N  c #323141",
"B  c #4C4D5B",
"V  c #4F4F5D",
"C  c #4C4758",
"Z  c #51505E",
"A  c #454652",
"S  c #1D1E26",
"D  c #1C1E27",
"F  c #1D1D26",
"G  c #202029",
"H  c #1F1F28",
"J  c #16181F",
"K  c #313040",
"L  c #4B4556",
"P  c #615B68",
"I  c #615D6A",
"U  c #464753",
"Y  c #23242E",
"T  c #21222D",
"R  c #363445",
"E  c #3C3B4C",
"W  c #4F505E",
"Q  c #52525F",
"!  c #4D4959",
"~  c #4F4A5A",
"^  c #615C69",
"/  c #525260",
"(  c #24252E",
")  c #413C4B",
"_  c #474252",
"`  c #4B4B58",
"'  c #4D4E5A",
"]  c #5B5763",
"[  c #5D5964",
"{  c #5E5965",
"}  c #55515C",
"|  c #1F1F27",
" . c #16171F",
".. c #383647",
"X. c #3C394B",
"o. c #3D3A4C",
"O. c #4D4757",
"+. c #3C3A4C",
"@. c #4F505D",
"#. c #51515E",
"$. c #1C1C25",
"%. c #22222C",
"&. c #4D4859",
"*. c #625F6B",
"=. c #65606C",
"-. c #67626E",
";. c #5E5A65",
":. c #25252E",
">. c #373546",
",. c #4A4456",
"<. c #4B4656",
"1. c #50505E",
"2. c #1C1D26",
"3. c #1C1D27",
"4. c #4F4E5C",
"5. c #635D6A",
"6. c #494454",
"7. c #464251",
"8. c #1C1E26",
"9. c #3D3B4C",
"0. c #4B4657",
"q. c #191A22",
"w. c #4A4656",
"e. c #525361",
"r. c #524C5C",
"t. c #504B5B",
"y. c #4E4F5B",
"u. c #443F4F",
"i. c #464151",
"p. c #20212B",
"a. c #333242",
"s. c #393648",
"d. c #494455",
"f. c #1B1B25",
"g. c #20202B",
"h. c #262632",
"j. c #535460",
"k. c #444050",
"l. c #645E6B",
"z. c #575764",
"x. c #22222D",
"c. c #454050",
"v. c #5C5864",
"b. c #26262F",
"n. c #171920",
"m. c #545361",
"M. c #22232D",
"N. c #1C1C26",
"B. c #645F6B",
"V. c #5B5662",
"C. c #1F2028",
"Z. c #1F202A",
"A. c #23232E",
"S. c #292934",
"D. c #4D4E5B",
"F. c #504A5A",
"G. c #494453",
"H. c #423E4D",
"J. c #474152",
"K. c #484353",
"L. c #242530",
"P. c #403C4B",
"I. c #181922",
"U. c #383646",
"Y. c #484354",
"T. c #282733",
"R. c #363446",
"E. c #413D4C",
"W. c #484253",
"Q. c #4C4C5A",
"!. c #20202A",
"~. c #282634",
"^. c #23212F",
"/. c #22202E",
"(. c #4D4658",
"). c #4E4859",
"_. c #423D4D",
"`. c #211F2D",
"'. c #1C1B28",
"]. c #1D1B29",
"[. c #23232D",
"{. c #1D1E29",
"}. c #23242F",
"|. c #4E495A",
" X c #474854",
".X c #50505D",
"XX c #282833",
"oX c #292A35",
"OX c #21202A",
"+X c #464754",
"@X c #474855",
"#X c #1E1F28",
"$X c #3B384A",
"%X c #20212C",
"&X c #635E6A",
"*X c #383648",
"=X c #3E3C4E",
"-X c #393849",
";X c #272733",
":X c #1C1D25",
">X c #1E1E27",
",X c #171921",
"<X c #353444",
"1X c #625E6B",
"2X c #575763",
"3X c #4E4E5A",
"4X c #22232E",
"5X c #514B5B",
"6X c #5B5863",
"7X c #202129",
"8X c #443F50",
"9X c #4A4454",
"0X c #474352",
"qX c #474353",
"wX c #23222C",
"eX c #474151",
"rX c #1C1A27",
"tX c #181821",
"yX c #1D1D27",
"uX c #4C4757",
"iX c #50515E",
"pX c #55525D",
"aX c #21222B",
"sX c #4C4C59",
"dX c #635F6B",
"fX c #333141",
"gX c #525460",
"hX c #21222C",
"jX c #484454",
"kX c white",
/* pixels */
"  . X o o O + @ # # $ % % $ # & & & & # $ * = - ; : > , <         1 X o o X 1             1 2 3 4 & & # % 5 6 : > 7 8 9 0 q q q ",
"  . X o o O + @ # # $ % % $ w # # # # w @ e r = 6 t y 0 u < < < < i p a o a s 1 . 1     1 s d 3 4 & & & * f g h j 7 k k l 0 q q ",
"  1 X o z x + @ # # @ c % % % @ % % % % % @ e * 5 f t v 0 , , , b n m s a o a X a p 1 1 p a z 3 4 & & M N g B V C b i s k Z 0 q ",
"< i a 8 3 A S % D # F F + + + + G G G H $ % % % J e K t y > > > L l P I a o o o o a s s a 8 3 U Y & & T R E W Q ! ~ ^ I a 8 0 q ",
"b ~ / 3 ( S $ % % F ) _ ` O O ' ] [ { } |  .% % c % e f ..X.: o.j O.b ~ Q o o o o o a a z 3 ( w & & & T R +.@.o 8 #.~ ~ Q 8 0 q ",
"C ! / O w  .% $ $.%._ &.Q z o d *.=.-.;.:.F + + + S % e r = 6 >.y ,.> <.1.8 8 8 o o o 8 3 A 2.% 3.# & T R +.4.Q o 8 ! ! 8 8 ! 0 ",
"8 8 o O +  . .$.) _ L 0 8 o o o a p 1 5.6.7.` O x A 8.% e * 5 f ..X.: 9.0.&.7 l / z z 3 ( S $ % $ q.# T R X.w.! 8 o 8 8 o o 8 8 ",
"o o e.O + % $.%._ 0 0 ! 8 o o o o a s m r.t.a 2 2 y.( 8.$ % J e r = 6 >.u.i.i._ ` O x A S  .% % % $ 3.p.a.s.d.0 Z 8 o o o o o o ",
"o o z x w $.) _ L 0 Z 8 o o o o o o a p I < . 1 1 i y.A S  .% @ e * f.* F F F F w w w 2.%  .% % c % $ q.g.h._ 0 0 ! 8 o o o o o ",
"d j.' A S 2.k.L q 0 Z 8 8 8 8 8 8 8 o a s 1 < l.  1 z.y.( S $ % % % @ $ @ @ @ $ S w w w + + + + + S $ $ 2.x.c.j q 0 8 o o o 8 8 ",
"=.v.b.2.n.* >.o.,.q 0 0 0 0 0 0 0 ! 8 o X m.~ r.<   1 i y.A S % % $ 3.# # # D M.U x O O O O O O x A S  .@ N.>.v j 7 8 o o 8 ! 0 ",
"B.V.C. .% * 6 : > q q q 0 0 0 0 q 0 Z 8 o 8 &.~ <     1 2 x + % $ q.# Z.A.Y A.S.D.z d 2 2 d z o z 3 ( S % e N ..y 0.1.8 8 Z 0 q ",
"F.G.w % % * = X.,.q q 0 Z 8 8 Z 0 q 0 ! 8 o 8 m.B.    . 2 O + % w # & A.H._ J.K.#.X s 1 1 s a o o 8 3 A 2.@ g.L...v 0.7 7 0 q q ",
"i.P.2.% % e r ..y j q 7 8 o o 8 ! 0 0 ! 8 o o X s 1   . 2 O + % w # & A._ 0 7 l 8 X s 1   1 p a X a z 3 ( w w g.N t y > > > > > ",
"F 2.$ % % @ e f >.o.,.7 8 o o o 8 8 8 8 o o o o a p 1 1 2 O + % $ I.w A.J.7 Z 8 o o a p 1   1 1 1 s a 8 3 A w @ e f U.X.: : : : ",
"% % % % % % J 5 6 : Y.0.1.8 8 8 o o o o o o o o o a s s d O + c % I.%.T._ 7 8 o o o o a i < < l.  1 p a z 3 ( 2.% e N R.R R R R ",
"% % c % % % % * = - : 9.0.&.7 ! 8 o o o o o o o o o d d z x + c % 2.E.W.L 7 8 o o o o Q ~ b b r.l.  1 s a 8 3 A S $ p.T T T M M ",
"+ + + S $ % % e r = 6 >.u.i.d.<.1.8 8 8 8 8 8 8 8 #.3 Q.3 U w % % F i.0 q 0 8 o o o o 9 0 q q l u l.  1 X o z x + % # & # & Y 4 ",
"O O x A S  .% @ e * f.* F !...v 0.&.7 7 7 7 7 7 &.Y.~.^.^./.I.% c F i.(.q 0 8 o o o o 8 0 q q q ).r.l.1 X o z x + % # # $ w U ' ",
"2 d z 3 ( S $ % % % @ $ % * K >.u.i.i.i.i.i.i.i._ _.`.'.].'.I.$ @ w u.j q 0 Z 8 o o o 8 ! 0 0 0 C ~ i s a 8 3 A + $ w # F [.3 z ",
"1 s a 8 3 A S % % $ 3.# # # * * F F F F F F F w x.M.& {.{.# # # # M ..v j q 0 ! 8 o o o 8 8 8 8 9 Q a a z 3 ( w # w $ F ) K.#.o ",
"< m p a z x + % $ q.# & & # I.@ @ $ $.F F F F w Y 4 4 4 4 4 4 }.Z.M N t y j q 0 Z 8 o o o o o o o o o o o O w % 3.# F %.K.|.8 o ",
"b n m s 2 O w % 3.# & & & & # # w %.E.i.i.i.i._ O 3 3 3 3 3 3  XY # * f t v j 0 0 ! 8 o o o o o o o o o z x + % % F ) K..X8 o o ",
"q l P I d x ( w & & & & & & & Z.M.XXW.0 7 7 7 |.a 2 2 2 2 d z D.oXM.q.* K >.u.J.L 0 Z 8 8 8 8 8 o o o 8 3 A S % e OXJ.&.8 o o o ",
"q q b ~ Q 8 ' +XY & & & & & # M.H.W.L 0 Z 8 9 k s 1 . . 1 s a 8 D. XM.3.* * 2.%._ 0 7 7 7 7 7 l / z z 3 ( 2.$ e r ..d.7 8 o o o ",
"0 0 C ! 8 8 y.@X}.& & & & Z.M.T.W.0 0 ! 8 o a p 1         1 p a z D.oXM.q.@ % F ) i.i.i.i.i.i._ ` O x A w % % * = : Y.0.1.8 o o ",
"8 8 8 Q z D.oXY Z.& & & #XM.H.W.L 0 Z 8 o a s 1             1 s a 8 D. XM.3.# # F F F F F F F F + + + + # 3.@ f.= - $Xo.0.l 8 o ",
"8 9 W @.D. XY # & & # #X%Xh._ 0 q 0 8 o o a s . < &X&X&X&X<   1 p a z D.oXY Z.# I.@ @ % % % % % % @ % I.# # I.* r R *X$XY.0.1.8 ",
"&.0.=X-X;XY Z.& & # $ * N s.d.q q 0 8 o o o X m.F.b b b b r.l.  1 s a 8 D. X}.& # # # w $ % % % 3.# # # & & # # * & R - : 9.0.&.",
"i.u...a.%X# & & # # * f t v ,.q 0 ! 8 o o o o 8 ! C C C C ~ u l.  1 X o z 3 Y # & & # w $ $ :X>X[.A.& # # # & # $ * r = 6 >.u.i.",
"F w M M & & & # I.* r ..y j q 0 Z 8 o o o o o o 8 8 8 8 8 #.~ r.l.1 a o o O #X$ # # q.$  .$.) i._ E.F % % $ # & # # * f.f.* F F ",
"@ I.# & & & & # ,Xf.<XX.,.q q 0 8 o o o o o o o o o o o o 8 C b < 1 p a z 3 ( w # 3.$ $ $.%._ 0 0 _ %.F >X#XY }.& w I.,X$ $ @ @ ",
"# # # & & & & # $ f.6 : > q q 0 8 o o o o o o o o o o o o 8 C b <   1 s a 8 3 A + % % 2.) _ L q q L i.7.` O 3 U w $ w # # # # # ",
"4 4 4 Y & # & # $ * >.o.,.q q 0 8 o o o o o o o o o o o o 8 0 b u < < i a o z x +  .% F i.0 q q 0 7 , t.a 2 z 3 ( w & & & & # # ",
"3 3 3 U w $ # # @ F u.j q q q 0 8 o o o o o o o o o o o o 8 0 q b , b ~ Q o o O + % % F i.(.q 0 Z k i < . s a 8 3 U Y & & # I.@ ",
"o z 2 y.( w # 3.% F i.(.q q q 0 8 o o o o o o o o o o o 8 Z 0 q q q C ! 8 o o O + % % F u.j q 7 8 X s 1 1 s a o z 3 4 # # # F F ",
"o a 1XI y.A + % % F i.q q q q 0 8 o o o o o o o o o o 8 ! 0 q q q 0 Z 8 o o o O + % % * >.v j 7 8 o X d d X o o z 3 4 # $ F ) i.",
"o a i m 2X3X+  .% F i.q q q q 0 Z 8 8 8 o o 8 8 8 8 8 Z 0 q q q q 0 8 o o o o O + % % e K t y <.4.W 9 9 9 9 8 #.3 U 4Xw F %.K.).",
"o Q ~ 5Xs 6XG  .% F i.q q q q q 0 0 0 ! 8 8 ! 0 0 0 0 0 q q q q q 0 8 o o e.z x +  .% % e f ..X.+.h 0.&.7 7 &.K.[.S $ F ) K..X8 ",
"o 8 &.~ ^ V.7X% % F i.q q q ,.,.q q q 0 Z Z 0 q q q q q q q 0 0 0 ! Z #.x O x A + @ $ $ % e r <X6 >.u.i.i.i.i.) $. .J F 8X0.Z 8 ",
"o o 8 #.t.9XA.3.% F i.0 (.j o.o.j q q q 0 0 q q q q q q q 0 Z 8 8 Z l 0X[.w + + # # # 3.$ % e * * * F F F F F 2.$ % % * >.v 0.7 ",
"8 8 8 .XqXE.A.# I.F ) i.i.k.- $XY.j q q q q q q q q q q q 0 Z 8 8 Z 7 i.F  .% I.# & & # q.$ $ @ % % % % % % % % % % % e K t y > ",
"7 7 &.K.wXF & & # # F F F !.R - : o.j (.q q q q q q q q q q 7 7 7 7 0 i.F % 3.# & & & & # # # 3.%  .% % % % c % % % % % e f ..X.",
"i.i.i.) $.% 3.# # w $ % J e r = 6 >.u.i.i.i.d.> > ,.q q q L eXi.i.i.i.) F I.# & & & & & & Z.}.Y #X+ + + + + + w I.$ $ $ % e r = ",
"F F F 2.$ % % @ % $ 3.3.% % e * * * F F F OX..X.: o.j (.0 _ %.F F F F F # # & & & & & & # Y  X3 O O O O O O x U M.3.# 3.$ % e * ",
"@ % % % % $ S + + #XY Y #XS $ % % % % %  .e r = 6 >.u.i.i.) $. .% % % @ 3.# & & # & A.Y }.oXD.z o z d d z o z D.oXY Z.# q.$ $ $ ",
"'.rXtX%  .S A x O O 3 3 x A S  .c % % % % @ e * * * F F F :X%  .% c  .% $ q.# # I.yXE.K.O D.8 o o a s s a o o 8 D. XY # # # # # ",
"].'.tX$ $.[.3 z d 2 2 d z 3 ( w + S $ % % % % % % % @ % % % S + + + G H $ $ # # @ F 8XuX8 o o o o a i m p a o o z D.oXY Z.& & & ",
"].'.% $.P.K.iXX s 1 1 s a 8 3 O x A S  .% % % % % $ w w % S A x O ' v.pXH % # # $ * >.h W o o o o Q ~ 5Xm 1XX o o 8 D. XY # & & ",
"'.'.F wXK.|.8 a i l.  1 p a z o z 3 ( S $ % % % $ q.# & * aXsXo o 2 dXv.G % # # $ f.6 +.4.Q o o o 8 &.~ ^ i k 8 o o z D.oXY Z.& ",
"@ F ) K..X8 o Q ~ r.l.  1 s a o o 8 3 A S % % $ 3.# & M fX..j l 8 o 2 3X+ % # # $ * <XX.<.l 8 o o o 8 #.~ b 0 ! 8 o o 8 D. X}.& ",
"J F i.&.8 o o 8 &.~ u < < I p a o o z x + % $ q.# & & M fX..y 0.Z #.D.U + $ w w @ e r ..y 0.1.8 8 8 o 8 ! C 0 ! 8 o o o z 3 4 & ",
"% F i.7 8 o o o 8 #.~ b b n m s a o z x + % 3.# & & & & * f t v 0.6.S.Y & w I.$ % @ e f t v 0.&.0 ! 8 o 8 8 8 8 o o o o gX3 4 & ",
"% F i.7 Z 8 o o o 8 0 q q l P I a 8 3 A S @ # & & & & # % e K >.8XE.hXw # w $ % % % c e K >.u.eXL 0 Z 8 8 8 8 8 o o 8 8 Q O 4 & ",
"% F i.0 0 ! 8 o o 8 0 q q q b ~ / 3 ( S $ $ # & & & & # @ % e 5 2.$.$ % @ % % c c % % @ e * 2.%.J.0 0 0 0 0 0 ! 8 Q l 7 &.K.Y & ",
"% 2.) J.d.0.9 o o 8 ! 0 0 0 C ! / O w  .% $ # & # # # # F F w w w w + + + + + + + S $ % % %  .2.u.j q q q q q 0 Z 1.K.J._ H.A.& ",
"% $ $.OX..=X1.o o o 8 8 8 8 8 8 z x +  .% $ # # I.@ % F ) _ ` O O O O O O O O O x A S  .c % % * >.v j q q q q q &.jXXXA.A.A.Z.& ",
"$ $ % * K g 3 1.9 8 8 8 8 8 o 8 D.U + @ $ I.w # F F F %.K.|./ z o o o o o z d d z 3 ( w + S $ e N ..c._ _ _ _ _ _ _.M.# & & & & ",
"# # # # * f g =X0.&.7 7 7 l / D.oXY & # # w $ F ) i.i.0X.X8 o o o o o o o a s s a 8 3 O x A 2.@ p.T A.A.A.A.A.A.Y A.& & & & & & ",
"4 }.Z.# $ * K >.u.i.i.i.i._ sX XY # & & # # F %._ 0 q 7 8 o o o o o a X a p 1 1 p a z o z 3 ( w # # & & & & & & # #XY 4 4 4 4 4 ",
"3  XY # # # * * F F F F F >XY }.Z.& & # I.F ) _ L q q 0 8 o o o o a s 1 . 1     1 s a o o 8 3 A + I.# & & & & # $ w U 3 3 3 3 3 ",
"z D.oXY & w I.@ % % % @ @ I.# & & & & # @ F k.L q q q 0 Z 8 o o o a s 1           1 p a o o z x + % # & & & # # F [.3 z / / d 2 ",
"o 8 D.U + $ w w $ $ w # # # & & & & & # $ * >.o.,.q q q 0 ! 8 o o o a p 1           1 s a o o O + @ # & & # I.F ) K.#.8 ! ~ i 1 ",
"o o z x + % # # $ $ # & & & & & & & & # $ f.6 : > q q q q 0 8 o o o o a .             1 X o o O + @ # & & # @ F i.).8 8 C b <   "
};
