/* XPM */
static char *_15c4dc909d448f0f126d0baad946a79PRrNZbhZUTB1dbNB[] = {
/* columns rows colors chars-per-pixel */
"64 64 7 1 ",
"  c #171820",
". c #1D1B29",
"X c #1E1F29",
"o c #393749",
"O c #4C4657",
"+ c #525360",
"@ c #66616D",
/* pixels */
"@@++++  XX    XXXXXX  ooooOO@@@@@@++++@@@@@@@@++  XX  ooOO++OOOO",
"@@++++  XX    XXXXXX  ooooOO@@@@@@++++@@@@@@@@++  XX  ooOO++OOOO",
"@@++++  XX                ooOOOOOO@@++++++@@++++    oo++OO@@++OO",
"@@++++  XX                ooOOOOOO@@++++++@@++++    oo++OO@@++OO",
"OO++      OO++++@@@@        ooooOOOO++++++++++      oo++++OO++OO",
"OO++      OO++++@@@@        ooooOOOO++++++++++      oo++++OO++OO",
"++++    OOOO++++++@@OO++++      ooooOOOO++++        ooOO++++++++",
"++++    OOOO++++++@@OO++++      ooooOOOO++++        ooOO++++++++",
"++++  OOOO++++++++++@@@@@@++                        XXOOOO++++++",
"++++  OOOO++++++++++@@@@@@++                        XXOOOO++++++",
"@@    ooOOOOOOOOOO++++OO@@@@++    XXXXXX++++++++++    ooOO++++OO",
"@@    ooOOOOOOOOOO++++OO@@@@++    XXXXXX++++++++++    ooOO++++OO",
"OO    ooOOOO++++OOOO++++@@@@++  XXXXOOOO++@@@@++++++  XXooOOOOOO",
"OO    ooOOOO++++OOOO++++@@@@++  XXXXOOOO++@@@@++++++  XXooOOOOOO",
"        ooOO++++++++++++++@@++    XXOO++++++@@@@@@++++    oooooo",
"        ooOO++++++++++++++@@++    XXOO++++++@@@@@@++++    oooooo",
"        ooooOOOO++++++++++++++    OOOO++++++OOOO@@@@++++        ",
"        ooooOOOO++++++++++++++    OOOO++++++OOOO@@@@++++        ",
"++++          ooOOOOOOOOOO....    OOOO++++++OOOOOO@@++++  XX  ++",
"++++          ooOOOOOOOOOO....    OOOO++++++OOOOOO@@++++  XX  ++",
"@@++++    XXXX          XXXXXXXXXXooOOOO++++++++++++++  XX  OO++",
"@@++++    XXXX          XXXXXXXXXXooOOOO++++++++++++++  XX  OO++",
"OO@@++  XXXXXXXXXXOOOOOO++++++++XX  ooOOOO++++++++++++    OO++++",
"OO@@++  XXXXXXXXXXOOOOOO++++++++XX  ooOOOO++++++++++++    OO++++",
"OOOO++++XXXXXXXXOOOO++++@@@@@@++++XX    OOOOOOOO++++    ooOO++++",
"OOOO++++XXXXXXXXOOOO++++@@@@@@++++XX    OOOOOOOO++++    ooOO++++",
"++++++XXXXXX  OOOO++++@@@@@@@@@@++++XXXX            XX  ooooOO++",
"++++++XXXXXX  OOOO++++@@@@@@@@@@++++XXXX            XX  ooooOO++",
"OOoo  XXXX  ooOOOO++++++OOOOOO@@@@++++XXXXXX    XXXXXXXX  ooooOO",
"OOoo  XXXX  ooOOOO++++++OOOOOO@@@@++++XXXXXX    XXXXXXXX  ooooOO",
"    XXXX  ooOOOO++++++++++++++OO@@++++  XX    OOOO    XXXX      ",
"    XXXX  ooOOOO++++++++++++++OO@@++++  XX    OOOO    XXXX      ",
"    XXXX  ooOOOO++++++++++++++OO@@@@++++    OOOOOOOO++++  XXXX  ",
"    XXXX  ooOOOO++++++++++++++OO@@@@++++    OOOOOOOO++++  XXXX  ",
"++++  XX  OOOOOO++++++++++++++OOOOOO++++    OOOO++@@@@++++XXXX  ",
"++++  XX  OOOOOO++++++++++++++OOOOOO++++    OOOO++@@@@++++XXXX  ",
"++@@++    OOOOOO++++++++++++OOOOOO++++++    ooOO++++++++++XX  OO",
"++@@++    OOOOOO++++++++++++OOOOOO++++++    ooOO++++++++++XX  OO",
"++OO@@  ooooOOOOOOOO++OOOOOOOOOOOO++++++      ooooOOOOOO    OO++",
"++OO@@  ooooOOOOOOOO++OOOOOOOOOOOO++++++      ooooOOOOOO    OO++",
"++++OOXX  ooooooOOOOOOOOOOOOOO++++OO    XXXX                ooOO",
"++++OOXX  ooooooOOOOOOOOOOOOOO++++OO    XXXX                ooOO",
"OOOO  XXXX    ooooOOOOOOOOOOOOOOOOOO  XXXXXXXXXX              oo",
"OOOO  XXXX    ooooOOOOOOOOOOOOOOOOOO  XXXXXXXXXX              oo",
"          XX          ooooOOOO      XXXXXXXXXX++++++++++XXXX    ",
"          XX          ooooOOOO      XXXXXXXXXX++++++++++XXXX    ",
"..    ++++++++                        XX  OO++++++@@++++++XXXXXX",
"..    ++++++++                        XX  OO++++++@@++++++XXXXXX",
"..  OO++@@@@++++++        XX  ++++@@  XX  oo++++++OO@@++++++XXXX",
"..  OO++@@@@++++++        XX  ++++@@  XX  oo++++++OO@@++++++XXXX",
"  OO++++OO@@@@++++++    XX  ooOO++++  XX  ooOO++++++OOOO++++++XX",
"  OO++++OO@@@@++++++    XX  ooOO++++  XX  ooOO++++++OOOO++++++XX",
"  OO++++++OOOO@@++++  XXXX    ooOOXXXX      ooOOOO++++++++++++XX",
"  OO++++++OOOO@@++++  XXXX    ooOOXXXX      ooOOOO++++++++++++XX",
"  OOOO++++OOOOOO++    XXXXXX                    OOOOOOOO++OOOOXX",
"  OOOO++++OOOOOO++    XXXXXX                    OOOOOOOO++OOOOXX",
"    oo++++++++++++    XX    OO++++++++++++      ooOOOOOO    XXXX",
"    oo++++++++++++    XX    OO++++++++++++      ooOOOOOO    XXXX",
"XXXX  ooOOOOOO++XXXXXX  OOOO++++++++++@@++++++          XXXXXXXX",
"XXXX  ooOOOOOO++XXXXXX  OOOO++++++++++@@++++++          XXXXXXXX",
"++XXXX        XXXXXX  OOOOOO++++++@@@@@@@@++++++      XX  ++++++",
"++XXXX        XXXXXX  OOOOOO++++++@@@@@@@@++++++      XX  ++++++",
"++++  XX  XXXXXXXXXX  ooOOOOOO++++++@@@@@@@@++++  XXXX  OO++OO@@",
"++++  XX  XXXXXXXXXX  ooOOOOOO++++++@@@@@@@@++++  XXXX  OO++OO@@"
};
